<svg width="50" height="50" viewBox="0 0 50 50" fill="none" xmlns="http://www.w3.org/2000/svg">
<path d="M8.8544 17C7.26484 17 6 18.2218 6 19.7573V31.2427C6 32.7782 7.26484 34 8.8544 34C10.444 34 11.7088 32.7782 11.7088 31.2427V19.7573C11.7088 18.2218 10.444 17 8.8544 17ZM42.1456 17C40.556 17 39.2912 18.2218 39.2912 19.7573V31.2427C39.2912 32.7782 40.556 34 42.1456 34C43.7352 34 45 32.7782 45 31.2427V19.7573C45 18.2218 43.7352 17 42.1456 17Z" fill="#32DE84"/>
<path d="M20.813 30C19.2465 30 18 31.2937 18 32.9195V45.0805C18 46.7063 19.2465 48 20.813 48C22.3796 48 23.6261 46.7063 23.6261 45.0805V32.9195C23.6261 31.2937 22.3796 30 20.813 30ZM30.187 30C28.6204 30 27.3739 31.2937 27.3739 32.9195V45.0805C27.3739 46.7063 28.6204 48 30.187 48C31.7535 48 33 46.7063 33 45.0805V32.9195C33 31.2937 31.7535 30 30.187 30Z" fill="#32DE84"/>
<path d="M13 18V35.9982C13 37.6612 14.3478 39 16.022 39H34.978C36.6522 39 38 37.6612 38 35.9982V18H13Z" fill="#32DE84"/>
<path d="M31.599 6.51959L33.6728 2.67569C33.7898 2.46021 33.719 2.18648 33.5204 2.06126C33.3217 1.93606 33.0631 2.00887 32.9488 2.22433L30.8478 6.11772C29.2448 5.33439 27.4405 4.89758 25.5 4.89758C23.5596 4.89758 21.7552 5.33439 20.1522 6.11772L18.0512 2.22433C17.9342 2.00884 17.6783 1.93605 17.4769 2.06126C17.2755 2.18644 17.2075 2.46021 17.3245 2.67569L19.3983 6.51959C15.8222 8.59295 13.4001 12.466 13 17H38C37.5999 12.466 35.1778 8.59295 31.599 6.51959ZM19.7603 13.2435C19.1806 13.2435 18.7125 12.7397 18.7125 12.1223C18.7125 11.5021 19.1833 11.0012 19.7603 11.0012C20.34 11.0012 20.8081 11.505 20.8081 12.1223C20.8109 12.7397 20.34 13.2435 19.7603 13.2435ZM31.237 13.2435C30.6573 13.2435 30.1892 12.7397 30.1892 12.1223C30.1892 11.5021 30.66 11.0012 31.237 11.0012C31.8167 11.0012 32.2848 11.505 32.2848 12.1223C32.2876 12.7397 31.8167 13.2435 31.237 13.2435Z" fill="#32DE84"/>
</svg>
