<svg width="37" height="41" viewBox="0 0 37 41" fill="none" xmlns="http://www.w3.org/2000/svg">
<g filter="url(#filter0_b_738_469)">
<path d="M27.1148 0H9.88722C3.63833 0 0 3.649 0 9.9015V31.078C0 37.433 3.63833 41 9.88722 41H27.1148C33.4644 41 37 37.433 37 31.078V9.9015C37 3.649 33.4644 0 27.1148 0Z" fill="url(#paint0_linear_738_469)"/>
<path d="M9.88722 0.5H27.1148C30.1947 0.5 32.5236 1.38314 34.0833 2.95791C35.6437 4.53348 36.5 6.86776 36.5 9.9015V31.078C36.5 34.1649 35.6427 36.5029 34.0841 38.0695C32.5258 39.6357 30.1977 40.5 27.1148 40.5H9.88722C6.85658 40.5 4.52614 39.6366 2.95335 38.0681C1.38084 36.4998 0.5 34.1611 0.5 31.078V9.9015C0.5 6.87158 1.37979 4.53656 2.95416 2.95929C4.5284 1.38215 6.85961 0.5 9.88722 0.5Z" stroke="url(#paint1_linear_738_469)"/>
</g>
<g filter="url(#filter1_b_738_469)">
<mask id="path-3-inside-1_738_469" fill="white">
<path fill-rule="evenodd" clip-rule="evenodd" d="M10.4523 9.53271C10.4467 9.53271 10.4421 9.5373 10.4421 9.54296C10.4421 9.54863 10.4374 9.55321 10.4318 9.55325C9.55059 9.55878 8.83876 10.2741 8.83876 11.1522C8.83876 12.0337 9.55615 12.7512 10.4421 12.7512H16.5861C17.4721 12.7512 18.1915 12.0337 18.1915 11.1297C18.1915 10.2502 17.4721 9.53271 16.5861 9.53271H10.4523ZM26.5576 22.0179H10.4421C9.55615 22.0179 8.83876 21.3004 8.83876 20.4189C8.83876 19.5374 9.55615 18.8178 10.4421 18.8178H26.5576C27.4415 18.8178 28.161 19.5374 28.161 20.4189C28.161 21.3004 27.4415 22.0179 26.5576 22.0179ZM26.5578 31.3864H10.4423C9.8256 31.4684 9.22949 31.1609 8.9006 30.6484C8.57171 30.1154 8.57171 29.4389 8.9006 28.9264C9.22949 28.3934 9.8256 28.1064 10.4423 28.1679H26.5578C27.378 28.2499 27.9967 28.9469 27.9967 29.7874C27.9967 30.6054 27.378 31.3044 26.5578 31.3864Z"/>
</mask>
<path fill-rule="evenodd" clip-rule="evenodd" d="M10.4523 9.53271C10.4467 9.53271 10.4421 9.5373 10.4421 9.54296C10.4421 9.54863 10.4374 9.55321 10.4318 9.55325C9.55059 9.55878 8.83876 10.2741 8.83876 11.1522C8.83876 12.0337 9.55615 12.7512 10.4421 12.7512H16.5861C17.4721 12.7512 18.1915 12.0337 18.1915 11.1297C18.1915 10.2502 17.4721 9.53271 16.5861 9.53271H10.4523ZM26.5576 22.0179H10.4421C9.55615 22.0179 8.83876 21.3004 8.83876 20.4189C8.83876 19.5374 9.55615 18.8178 10.4421 18.8178H26.5576C27.4415 18.8178 28.161 19.5374 28.161 20.4189C28.161 21.3004 27.4415 22.0179 26.5576 22.0179ZM26.5578 31.3864H10.4423C9.8256 31.4684 9.22949 31.1609 8.9006 30.6484C8.57171 30.1154 8.57171 29.4389 8.9006 28.9264C9.22949 28.3934 9.8256 28.1064 10.4423 28.1679H26.5578C27.378 28.2499 27.9967 28.9469 27.9967 29.7874C27.9967 30.6054 27.378 31.3044 26.5578 31.3864Z" fill="url(#paint2_linear_738_469)"/>
<path d="M10.4423 31.3864V30.3864H10.3761L10.3105 30.3951L10.4423 31.3864ZM26.5578 31.3864V32.3864H26.6077L26.6573 32.3815L26.5578 31.3864ZM8.9006 30.6484L8.04957 31.1735L8.05422 31.1811L8.05899 31.1885L8.9006 30.6484ZM8.9006 28.9264L9.74221 29.4665L9.74698 29.4591L9.75162 29.4515L8.9006 28.9264ZM10.4423 28.1679L10.343 29.163L10.3925 29.1679H10.4423V28.1679ZM26.5578 28.1679L26.6573 27.1729L26.6077 27.1679H26.5578V28.1679ZM10.4318 9.55325L10.4255 8.55327L10.4318 9.55325ZM9.83876 11.1522C9.83876 10.826 10.1046 10.5553 10.4381 10.5532L10.4255 8.55327C8.99655 8.56225 7.83876 9.72224 7.83876 11.1522H9.83876ZM10.4421 11.7512C10.1067 11.7512 9.83876 11.4797 9.83876 11.1522H7.83876C7.83876 12.5877 9.00558 13.7512 10.4421 13.7512V11.7512ZM16.5861 11.7512H10.4421V13.7512H16.5861V11.7512ZM17.1915 11.1297C17.1915 11.4872 16.9141 11.7512 16.5861 11.7512V13.7512C18.0301 13.7512 19.1915 12.5802 19.1915 11.1297H17.1915ZM16.5861 10.5327C16.924 10.5327 17.1915 10.8067 17.1915 11.1297H19.1915C19.1915 9.69371 18.0202 8.53271 16.5861 8.53271V10.5327ZM10.4523 10.5327H16.5861V8.53271H10.4523V10.5327ZM10.4421 23.0179H26.5576V21.0179H10.4421V23.0179ZM7.83876 20.4189C7.83876 21.8544 9.00558 23.0179 10.4421 23.0179V21.0179C10.1067 21.0179 9.83876 20.7464 9.83876 20.4189H7.83876ZM10.4421 17.8178C9.00391 17.8178 7.83876 18.9851 7.83876 20.4189H9.83876C9.83876 20.0897 10.1084 19.8178 10.4421 19.8178V17.8178ZM26.5576 17.8178H10.4421V19.8178H26.5576V17.8178ZM29.161 20.4189C29.161 18.9842 27.9929 17.8178 26.5576 17.8178V19.8178C26.8901 19.8178 27.161 20.0906 27.161 20.4189H29.161ZM26.5576 23.0179C27.9913 23.0179 29.161 21.8552 29.161 20.4189H27.161C27.161 20.7456 26.8918 21.0179 26.5576 21.0179V23.0179ZM10.4423 32.3864H26.5578V30.3864H10.4423V32.3864ZM8.05899 31.1885C8.57932 31.9993 9.54081 32.5151 10.5741 32.3777L10.3105 30.3951C10.1104 30.4217 9.87965 30.3225 9.7422 30.1083L8.05899 31.1885ZM8.05899 28.3863C7.5149 29.2342 7.52607 30.3251 8.04957 31.1735L9.75162 30.1233C9.61735 29.9057 9.62852 29.6437 9.74221 29.4665L8.05899 28.3863ZM10.5415 27.1729C9.5512 27.0741 8.58292 27.5369 8.04957 28.4013L9.75162 29.4515C9.87605 29.2499 10.1 29.1387 10.343 29.163L10.5415 27.1729ZM26.5578 27.1679H10.4423V29.1679H26.5578V27.1679ZM28.9967 29.7874C28.9967 28.45 28.0052 27.3076 26.6573 27.1729L26.4583 29.163C26.7508 29.1922 26.9967 29.4439 26.9967 29.7874H28.9967ZM26.6573 32.3815C27.9982 32.2474 28.9967 31.1095 28.9967 29.7874H26.9967C26.9967 30.1012 26.7578 30.3614 26.4583 30.3914L26.6573 32.3815ZM11.4421 9.54296C11.4421 10.0896 10.999 10.5327 10.4523 10.5327V8.53271C9.8944 8.53271 9.44209 8.98502 9.44209 9.54296H11.4421ZM9.44209 9.54296C9.44209 8.98812 9.89208 8.55662 10.4255 8.55327L10.4381 10.5532C10.9828 10.5498 11.4421 10.1091 11.4421 9.54296H9.44209Z" fill="url(#paint3_linear_738_469)" mask="url(#path-3-inside-1_738_469)"/>
</g>
<defs>
<filter id="filter0_b_738_469" x="-24" y="-24" width="85" height="89" filterUnits="userSpaceOnUse" color-interpolation-filters="sRGB">
<feFlood flood-opacity="0" result="BackgroundImageFix"/>
<feGaussianBlur in="BackgroundImageFix" stdDeviation="12"/>
<feComposite in2="SourceAlpha" operator="in" result="effect1_backgroundBlur_738_469"/>
<feBlend mode="normal" in="SourceGraphic" in2="effect1_backgroundBlur_738_469" result="shape"/>
</filter>
<filter id="filter1_b_738_469" x="-6.34607" y="-5.46729" width="49.507" height="51.8667" filterUnits="userSpaceOnUse" color-interpolation-filters="sRGB">
<feFlood flood-opacity="0" result="BackgroundImageFix"/>
<feGaussianBlur in="BackgroundImageFix" stdDeviation="7.5"/>
<feComposite in2="SourceAlpha" operator="in" result="effect1_backgroundBlur_738_469"/>
<feBlend mode="normal" in="SourceGraphic" in2="effect1_backgroundBlur_738_469" result="shape"/>
</filter>
<linearGradient id="paint0_linear_738_469" x1="4.35756" y1="3.55894" x2="21.1525" y2="39.7697" gradientUnits="userSpaceOnUse">
<stop stop-color="white"/>
<stop offset="0.989661" stop-color="white" stop-opacity="0.33"/>
</linearGradient>
<linearGradient id="paint1_linear_738_469" x1="18.5" y1="0" x2="18.5" y2="41" gradientUnits="userSpaceOnUse">
<stop stop-color="white"/>
<stop offset="1" stop-color="#E5E5E5" stop-opacity="0"/>
</linearGradient>
<linearGradient id="paint2_linear_738_469" x1="10.9513" y1="11.4308" x2="19.9754" y2="30.6639" gradientUnits="userSpaceOnUse">
<stop stop-color="white"/>
<stop offset="0.989661" stop-color="white" stop-opacity="0.33"/>
</linearGradient>
<linearGradient id="paint3_linear_738_469" x1="18.4075" y1="9.53271" x2="18.4075" y2="31.3996" gradientUnits="userSpaceOnUse">
<stop stop-color="white"/>
<stop offset="1" stop-color="#E5E5E5" stop-opacity="0"/>
</linearGradient>
</defs>
</svg>
