<svg width="54" height="35" viewBox="0 0 54 35" fill="none" xmlns="http://www.w3.org/2000/svg">
<path fill-rule="evenodd" clip-rule="evenodd" d="M13.5 0H40.5V35H13.5V0Z" fill="#F7FCFF"/>
<path fill-rule="evenodd" clip-rule="evenodd" d="M26.9602 10.2083L27 27.7083H25.9883L26.609 23.3775C22.0694 24.0834 19.9873 24.2583 20.3626 23.9023C20.7379 23.5462 21.0336 23.0416 21.2498 22.3884L15.1875 18.8931C15.825 18.8862 16.4031 18.7494 16.9217 18.4829C17.4404 18.2163 17.1811 17.2925 16.1438 15.7116L19.2045 16.0964L20.3626 15.0088L22.6719 17.0975H23.7099L22.6719 12.3132L24.5326 13.2114L26.9602 10.2083ZM26.9602 10.2083L29.4675 13.2114L31.3282 12.3132L30.2901 17.0975H31.3282L33.6375 15.0088L34.7955 16.0964L37.8563 15.7116C36.819 17.2925 36.5597 18.2163 37.0783 18.4829C37.597 18.7494 38.175 18.8862 38.8126 18.8931L32.7503 22.3884C32.9665 23.0416 33.2622 23.5462 33.6375 23.9023C34.0128 24.2583 31.9306 24.0834 27.391 23.3775L28.0117 27.7083H27.0001L26.9602 10.2083Z" fill="#E31D1C"/>
<path fill-rule="evenodd" clip-rule="evenodd" d="M40.5 0H54V35H40.5V0Z" fill="#E31D1C"/>
<path fill-rule="evenodd" clip-rule="evenodd" d="M0 0H13.5V35H0V0Z" fill="#E31D1C"/>
</svg>
