<svg width="26" height="25" viewBox="0 0 26 25" fill="none" xmlns="http://www.w3.org/2000/svg">
<path d="M22.7522 17.6997H13.3111C11.0279 17.6997 9.74933 19.298 9.74933 20.9989C9.74933 22.5687 10.8339 24.2982 13.3111 24.2982H22.7522V17.6997Z" fill="#669DF6"/>
<path d="M22.7522 24.2923C24.546 24.2923 26.0001 22.8152 26.0001 20.9931C26.0001 19.171 24.546 17.6938 22.7522 17.6938C20.9585 17.6938 19.5043 19.171 19.5043 20.9931C19.5043 22.8152 20.9585 24.2923 22.7522 24.2923Z" fill="#1A73E8"/>
<path d="M13.0029 8.90381H3.56181C1.2786 8.90381 0 10.5021 0 12.203C0 13.7728 1.08453 15.5023 3.56181 15.5023H13.0029V8.90381Z" fill="#669DF6"/>
<path d="M13.0029 15.5023C14.7966 15.5023 16.2507 14.0252 16.2507 12.203C16.2507 10.3809 14.7966 8.90381 13.0029 8.90381C11.2091 8.90381 9.755 10.3809 9.755 12.203C9.755 14.0252 11.2091 15.5023 13.0029 15.5023Z" fill="#1A73E8"/>
<path d="M22.7522 0.113281H13.3111C11.0279 0.113281 9.74933 1.71153 9.74933 3.41252C9.74933 4.98223 10.8339 6.71176 13.3111 6.71176H22.7522V0.113281Z" fill="#669DF6"/>
<path d="M22.7522 6.71176C24.546 6.71176 26.0001 5.23464 26.0001 3.41252C26.0001 1.5904 24.546 0.113281 22.7522 0.113281C20.9585 0.113281 19.5043 1.5904 19.5043 3.41252C19.5043 5.23464 20.9585 6.71176 22.7522 6.71176Z" fill="#1A73E8"/>
</svg>
