<svg width="54" height="38" viewBox="0 0 54 38" fill="none" xmlns="http://www.w3.org/2000/svg">
<path d="M52.406 14.5006C51.2125 13.6778 48.4774 13.3693 46.3392 13.7807C46.0908 11.7238 44.9469 9.92419 42.9577 8.33008L41.8141 7.50732L41.0183 8.69004C40.0239 10.2327 39.5266 12.3925 39.6757 14.4494C39.7254 15.1691 39.974 16.4547 40.7199 17.586C40.0239 17.9974 38.5817 18.5116 36.6922 18.5116H0.739065L0.63969 18.923C0.291463 20.9797 0.291463 27.4073 4.36915 32.3437C7.45227 36.0974 12.0272 38 18.0442 38C31.0727 38 40.7199 31.7778 45.2452 20.5169C47.0354 20.5683 50.8645 20.5169 52.804 16.6602C52.8536 16.5573 52.953 16.3516 53.301 15.5805L53.5 15.1691L52.406 14.5006ZM29.4814 0H24.0117V5.14207H29.4814V0ZM29.4814 6.17053H24.0117V11.3126H29.4814V6.17032V6.17053ZM23.0169 6.17053H17.5471V11.3126H23.0169V6.17032V6.17053ZM16.5523 6.17053H11.0824V11.3126H16.5523V6.17032V6.17053ZM10.0878 12.3411H4.6178V17.4831H10.0876V12.3409L10.0878 12.3411ZM16.5523 12.3411H11.0824V17.4831H16.5523V12.3409V12.3411ZM23.0169 12.3411H17.5471V17.4831H23.0169V12.3409V12.3411ZM29.4817 12.3411H24.0115V17.4831H29.4817V12.3409V12.3411ZM35.9462 12.3411H30.476V17.4831H35.9462V12.3409V12.3411Z" fill="#2396ED"/>
</svg>
