<svg width="20" height="21" viewBox="0 0 20 21" fill="none" xmlns="http://www.w3.org/2000/svg">
<path d="M5.33179 18.1771C5.33179 17.8418 5.33179 17.5065 5.33179 17.1712C5.33417 17.1575 5.33369 17.1435 5.33037 17.1299C5.32705 17.1164 5.32097 17.1037 5.3125 17.0926C5.30403 17.0816 5.29336 17.0723 5.28114 17.0655C5.26891 17.0586 5.2554 17.0543 5.24144 17.0529C4.40272 16.8168 3.62859 16.3962 2.97674 15.8224C2.5018 15.3944 2.10636 14.887 1.80841 14.3235C1.38846 13.5094 1.10897 12.6315 0.981542 11.7261C0.823656 10.5903 0.768823 9.44274 0.8177 8.29724C0.828419 7.76319 0.855981 7.23522 0.91723 6.70117C1.01491 5.68632 1.27328 4.69305 1.68285 3.75784C2.18859 2.60797 3.10606 1.68433 4.25839 1.16499C5.04336 0.809071 5.86916 0.549236 6.71756 0.391225C7.54954 0.235082 8.39192 0.139246 9.23797 0.104479C10.0006 0.0777567 10.7641 0.0888966 11.5256 0.137857C12.6156 0.183439 13.6956 0.362305 14.7412 0.670386C15.5165 0.891814 16.254 1.22676 16.9294 1.66414C17.5874 2.11172 18.1196 2.7179 18.4759 3.42558C18.8948 4.25212 19.1795 5.13893 19.3196 6.05333C19.4107 6.59622 19.4705 7.14379 19.4988 7.6934C19.5386 8.37462 19.534 9.05886 19.508 9.73704C19.4819 10.4152 19.4238 11.0737 19.3395 11.7382C19.2331 12.7356 18.9237 13.7013 18.43 14.5768C17.7874 15.6845 16.758 16.5209 15.5359 16.9285C14.7003 17.2184 13.8375 17.4248 12.9604 17.5444C12.3188 17.6324 11.6757 17.6962 11.0295 17.722C10.5349 17.7447 10.0403 17.7386 9.54575 17.7311C9.26553 17.7311 8.98685 17.7037 8.70816 17.6795C8.6808 17.6744 8.65253 17.6774 8.62691 17.6882C8.60129 17.699 8.57948 17.7171 8.56423 17.7402C8.00073 18.4107 7.4158 19.0631 6.82627 19.7125C6.71889 19.831 6.59456 19.9332 6.45725 20.0159C6.36711 20.0745 6.26433 20.1113 6.15721 20.1233C6.05009 20.1352 5.94163 20.1221 5.84058 20.0849C5.73953 20.0477 5.64873 19.9874 5.57551 19.909C5.50229 19.8306 5.4487 19.7363 5.41907 19.6336C5.36071 19.4511 5.33178 19.2606 5.33332 19.0692C5.33179 18.7688 5.33179 18.473 5.33179 18.1771ZM6.01319 19.45L6.08516 19.3833L7.36374 17.9768C7.85577 17.4357 8.3473 16.8941 8.83832 16.3519C8.86245 16.3189 8.89502 16.2927 8.93268 16.2762C8.97034 16.2597 9.01175 16.2534 9.05269 16.2579C9.2196 16.2746 9.3865 16.2806 9.55494 16.2821C10.1368 16.2821 10.7187 16.2822 11.3005 16.2412C11.8288 16.2002 12.3556 16.1365 12.8793 16.0546C13.4431 15.9573 14.0013 15.8302 14.5514 15.6738C15.7764 15.3476 16.7242 14.6497 17.3198 13.5194C17.6715 12.8244 17.892 12.0717 17.9706 11.2982C18.0637 10.5692 18.1194 9.83596 18.1375 9.10135C18.1647 8.17851 18.1011 7.25525 17.9476 6.34463C17.8413 5.68488 17.6498 5.04139 17.378 4.42995C17.032 3.67136 16.542 3.04325 15.7871 2.63968C14.6295 2.02067 13.3769 1.74455 12.0861 1.60345C11.7201 1.564 11.3541 1.54276 10.9866 1.52911C10.2342 1.49067 9.48008 1.49472 8.72807 1.54125C8.18724 1.58101 7.64932 1.65296 7.11721 1.75669C6.33467 1.89802 5.57765 2.15367 4.87088 2.51527C4.46114 2.72041 4.08942 2.9928 3.77146 3.3209C3.25614 3.89156 2.87815 4.57059 2.6659 5.30688C2.41411 6.1644 2.27667 7.05088 2.25706 7.94374C2.20779 8.83659 2.21905 9.73172 2.29075 10.6231C2.33536 11.1535 2.425 11.6793 2.55872 12.1949C2.75767 12.9983 3.14362 13.7444 3.68571 14.3735C4.27095 15.0154 5.02735 15.4803 5.86772 15.7147C5.97337 15.7466 6.02084 15.783 6.02084 15.9013C6.01166 16.3383 6.02084 16.7752 6.02084 17.2122L6.01319 19.45Z" fill="#9747FF"/>
<path d="M4.94167 5.89865C4.93095 5.56639 5.11316 5.32516 5.33366 5.1082C5.62448 4.83218 5.94488 4.58848 6.28915 4.38147C6.44614 4.28554 6.63281 4.24899 6.81483 4.27854C6.99684 4.30808 7.16198 4.40174 7.27986 4.54229C7.69641 4.97613 8.06925 5.4492 8.39307 5.95478C8.55343 6.18221 8.67452 6.43447 8.75138 6.70124C8.7821 6.80534 8.7841 6.9157 8.75717 7.02083C8.73024 7.12596 8.67537 7.22202 8.59826 7.299C8.42161 7.47081 8.23334 7.63049 8.03476 7.77692C7.93471 7.85592 7.86031 7.96234 7.82083 8.08293C7.78136 8.20351 7.77854 8.33294 7.81274 8.45509C7.93537 9.0287 8.21327 9.55842 8.61663 9.98744C9.10677 10.5803 9.73829 11.0428 10.4541 11.3332C10.63 11.4228 10.8316 11.4501 11.0253 11.4106C11.1314 11.3819 11.2257 11.3208 11.2948 11.2361C11.402 11.1011 11.5183 10.9706 11.6148 10.8264C11.7399 10.6467 11.931 10.5224 12.1472 10.4802C12.3635 10.4379 12.5878 10.4811 12.7724 10.6004C13.2915 10.8988 13.7815 11.2441 14.2363 11.6321C14.3435 11.7231 14.4552 11.8111 14.5624 11.9036C14.6893 11.9995 14.7808 12.1339 14.8232 12.2863C14.8655 12.4386 14.8562 12.6006 14.7967 12.7472C14.7021 12.9938 14.5642 13.2218 14.3894 13.4208C14.1722 13.72 13.8955 13.9719 13.5763 14.1612C13.4237 14.25 13.2523 14.3021 13.0758 14.3134C12.8992 14.3248 12.7224 14.295 12.5596 14.2264C11.3207 13.7322 10.1631 13.0578 9.12501 12.2253C8.10964 11.3971 7.2223 10.4259 6.49128 9.34264C5.87617 8.4459 5.3868 7.47055 5.0366 6.44332C4.99931 6.31907 4.96865 6.19297 4.94473 6.06554C4.93792 6.01016 4.9369 5.95424 4.94167 5.89865Z" fill="#9747FF"/>
<path d="M10.2282 4.28467C11.2647 4.30365 12.2617 4.68248 13.0452 5.35511C13.8287 6.02774 14.3491 6.9515 14.5157 7.96534C14.5827 8.33395 14.6186 8.70746 14.6229 9.08198C14.6229 9.16998 14.5999 9.2337 14.5049 9.2428C14.41 9.25191 14.3855 9.1715 14.3855 9.09109C14.3997 8.33352 14.2428 7.58239 13.9261 6.89269C13.6595 6.32598 13.2645 5.82786 12.7718 5.43709C12.2792 5.04632 11.7022 4.77345 11.0857 4.63968C10.7598 4.56492 10.4265 4.52625 10.0919 4.52438C10.0593 4.52494 10.0269 4.52085 9.99546 4.51224C9.96872 4.50477 9.94596 4.48731 9.93196 4.46354C9.91796 4.43976 9.91383 4.41153 9.92043 4.3848C9.92062 4.37212 9.92337 4.3596 9.92849 4.34798C9.93362 4.33635 9.94104 4.32586 9.9503 4.3171C9.95956 4.30835 9.97049 4.30151 9.98245 4.29698C9.99441 4.29245 10.0072 4.29033 10.02 4.29073C10.0889 4.28163 10.1593 4.28467 10.2282 4.28467Z" fill="#9747FF"/>
<path d="M13.1841 8.39891C13.179 7.97741 13.0742 7.56298 12.8782 7.18884C12.6823 6.81471 12.4005 6.49128 12.0556 6.24451C11.6531 5.96434 11.1851 5.79046 10.6959 5.73929C10.6132 5.72867 10.5305 5.72412 10.4463 5.71502C10.3621 5.70592 10.3115 5.67102 10.3192 5.58606C10.3268 5.5011 10.3804 5.47075 10.4723 5.47682C11.829 5.55875 12.9835 6.31886 13.3388 7.73438C13.4038 8.00732 13.4361 8.28689 13.4353 8.56731C13.4353 8.59311 13.4353 8.6189 13.4353 8.64317C13.4353 8.71903 13.3863 8.7691 13.3112 8.76758C13.2946 8.76703 13.2782 8.76312 13.2632 8.75609C13.2481 8.74907 13.2346 8.73907 13.2236 8.72672C13.2126 8.71437 13.2042 8.69991 13.199 8.68424C13.1938 8.66858 13.1918 8.65202 13.1933 8.63559C13.1811 8.56428 13.1841 8.49146 13.1841 8.39891Z" fill="#9747FF"/>
<path d="M10.8071 6.70874C11.5513 6.7588 12.0704 7.11989 12.2128 7.90427C12.2301 8.00476 12.2423 8.10603 12.2496 8.20771C12.2496 8.28963 12.2312 8.35943 12.1408 8.35943C12.0505 8.35943 12.0199 8.29874 12.0168 8.20771C12.016 7.90703 11.9225 7.61379 11.7488 7.36719C11.5664 7.14384 11.3044 6.99832 11.0169 6.96059C10.9526 6.94867 10.8877 6.94057 10.8224 6.93631C10.7153 6.93631 10.6555 6.88321 10.6693 6.80128C10.6831 6.71936 10.7474 6.70418 10.8071 6.70874Z" fill="#9747FF"/>
</svg>
