<svg width="60" height="60" viewBox="0 0 60 60" fill="none" xmlns="http://www.w3.org/2000/svg">
<path d="M20 60C25.52 60 30 55.52 30 50V40H20C14.48 40 10 44.48 10 50C10 55.52 14.48 60 20 60Z" fill="#0ACF83"/>
<path d="M10 30C10 24.48 14.48 20 20 20H30V40H20C14.48 40 10 35.52 10 30Z" fill="#A259FF"/>
<path d="M10 10C10 4.48 14.48 0 20 0H30V20H20C14.48 20 10 15.52 10 10Z" fill="#F24E1E"/>
<path d="M30 0H40C45.52 0 50 4.48 50 10C50 15.52 45.52 20 40 20H30V0Z" fill="#FF7262"/>
<path d="M50 30C50 35.52 45.52 40 40 40C34.48 40 30 35.52 30 30C30 24.48 34.48 20 40 20C45.52 20 50 24.48 50 30Z" fill="#1ABCFE"/>
</svg>
