<svg width="21" height="12" viewBox="0 0 21 12" fill="none" xmlns="http://www.w3.org/2000/svg">
<path d="M0.842041 1.82522C0.842041 1.07715 1.4843 0.470703 2.27656 0.470703H10.8837C13.2605 0.470703 15.1872 2.29003 15.1872 4.53427V9.95235C15.1872 10.7005 14.545 11.3069 13.7527 11.3069H5.14559C2.76881 11.3069 0.842041 9.48762 0.842041 7.24331V1.82522Z" fill="#9747FF"/>
<path d="M15.9059 5.55238C15.9059 4.89625 16.1581 4.26233 16.6157 3.76847L19.0412 1.15121C19.6953 0.445261 20.9267 0.882135 20.9267 1.82017V9.95795C20.9267 10.896 19.6953 11.3328 19.0412 10.6268L16.6157 8.00961C16.1581 7.51575 15.9059 6.88184 15.9059 6.22571V5.55238Z" fill="#9747FF"/>
</svg>
