<svg width="24" height="18" viewBox="0 0 24 18" fill="none" xmlns="http://www.w3.org/2000/svg">
<path d="M2.026 17.919H5.73179V8.91922L0.437805 4.94873V16.3308C0.437805 17.2096 1.14985 17.919 2.026 17.919Z" fill="#9747FF"/>
<path d="M18.4373 17.919H22.1431C23.0219 17.919 23.7313 17.2069 23.7313 16.3308V4.94873L18.4373 8.91922" fill="#9747FF"/>
<path d="M18.4373 2.03704V8.91921L23.7313 4.94873V2.83113C23.7313 0.867066 21.4893 -0.252611 19.9196 0.9253" fill="#9747FF"/>
<path d="M5.73181 8.91929V2.03711L12.0846 6.80169L18.4374 2.03711V8.91929L12.0846 13.6839" fill="#9747FF"/>
<path d="M0.437805 2.83113V4.94873L5.73179 8.91921V2.03704L4.24947 0.9253C2.67716 -0.252611 0.437805 0.867066 0.437805 2.83113Z" fill="#9747FF"/>
</svg>
