<svg width="50" height="50" viewBox="0 0 50 50" fill="none" xmlns="http://www.w3.org/2000/svg">
<path d="M18.7186 37.9255C18.7186 37.9255 16.8728 38.9989 20.0321 39.3621C23.8595 39.7988 25.8157 39.7361 30.0335 38.9378C30.0335 38.9378 31.1424 39.6332 32.6911 40.2354C23.2358 44.2877 11.292 40.0007 18.7186 37.9255Z" fill="#5382A1"/>
<path d="M17.5632 32.6377C17.5632 32.6377 15.493 34.1701 18.6547 34.4971C22.7432 34.9189 25.972 34.9534 31.5591 33.8776C31.5591 33.8776 32.3319 34.661 33.547 35.0894C22.1151 38.4323 9.38192 35.3531 17.5632 32.6377Z" fill="#5382A1"/>
<path d="M27.3034 23.6673C29.6332 26.3496 26.6913 28.7633 26.6913 28.7633C26.6913 28.7633 32.607 25.7095 29.8902 21.8853C27.3527 18.3191 25.4069 16.5471 35.941 10.4377C35.941 10.4377 19.4059 14.5674 27.3034 23.6673Z" fill="#F8981D"/>
<path d="M39.8087 41.837C39.8087 41.837 41.1746 42.9624 38.3045 43.8331C32.8468 45.4864 15.589 45.9857 10.7948 43.899C9.07144 43.1492 12.3033 42.1088 13.3199 41.8905C14.3801 41.6606 14.9859 41.7034 14.9859 41.7034C13.0694 40.3533 2.59805 44.3545 9.66703 45.5004C28.9452 48.6267 44.8092 44.0925 39.8087 41.837Z" fill="#5382A1"/>
<path d="M19.6062 27.1585C19.6062 27.1585 10.8277 29.2435 16.4975 30.0007C18.8915 30.3212 23.6637 30.2487 28.109 29.8762C31.7419 29.5698 35.3898 28.9182 35.3898 28.9182C35.3898 28.9182 34.1088 29.4668 33.182 30.0996C24.2677 32.4441 7.04681 31.3534 12.0045 28.9553C16.1972 26.9286 19.6062 27.1585 19.6062 27.1585Z" fill="#5382A1"/>
<path d="M35.3536 35.9608C44.4154 31.2519 40.2256 26.7267 37.3011 27.3364C36.5843 27.4855 36.2647 27.6148 36.2647 27.6148C36.2647 27.6148 36.5308 27.198 37.0391 27.0175C42.8246 24.9835 47.274 33.0165 35.1714 36.1981C35.1714 36.1981 35.3117 36.0729 35.3536 35.9608Z" fill="#5382A1"/>
<path d="M29.8902 0.572754C29.8902 0.572754 34.9087 5.59303 25.1303 13.3128C17.2889 19.5054 23.3422 23.0362 25.127 27.0704C20.5499 22.9407 17.1909 19.3053 19.4443 15.9218C22.7519 10.9552 31.915 8.54716 29.8902 0.572754Z" fill="#F8981D"/>
<path d="M20.4966 48.7208C29.1948 49.2776 42.552 48.4119 42.8683 44.2961C42.8683 44.2961 42.2602 45.8564 35.6797 47.0955C28.2556 48.4926 19.099 48.3295 13.6681 47.4341C13.6681 47.4341 14.7799 48.3542 20.4966 48.7208Z" fill="#5382A1"/>
</svg>
