<svg width="31" height="27" viewBox="0 0 31 27" fill="none" xmlns="http://www.w3.org/2000/svg">
<path d="M10.2596 18.9311C10.1887 18.9237 10.1203 18.9137 10.0544 18.9013L10.2596 18.9311Z" fill="white"/>
<path d="M10.0276 18.8961C8.27586 18.5441 8.29323 16.4488 8.29323 16.4488V0.0164855H28.1919C30.0787 -0.189511 30.0493 1.68506 30.0493 1.68506V6.31587C30.0493 4.87389 28.2422 4.78943 28.2422 4.78943H14.6473C13.358 4.78943 13.3622 5.58458 13.3622 5.58458V13.1035C13.3622 14.2261 14.3496 14.1334 14.3496 14.1334H28.0515C29.9382 14.5454 29.8376 15.8947 29.8376 15.8947V20.6326C29.8376 20.6326 29.8187 19.1907 28.0473 18.8817L10.0276 18.8961Z" fill="white"/>
<path d="M10.0276 18.8961C10.0365 18.8979 10.0454 18.8996 10.0544 18.9013L10.0185 18.8961L10.0276 18.8961Z" fill="white"/>
<path d="M9.60345 20.3587H27.2695C29.8732 20.3587 29.7852 22.5793 29.7852 22.5793V27H2.03348C-0.0335402 26.3779 2.62863e-06 24.2499 2.62863e-06 24.2499V2.41429C0.209638 2.6226e-06 2.79865 0.0164825 2.79865 0.0164825H7.04589V17.6333C7.1549 20.6265 9.60345 20.3587 9.60345 20.3587Z" fill="white"/>
</svg>
