<svg width="25" height="24" viewBox="0 0 25 24" fill="none" xmlns="http://www.w3.org/2000/svg">
<path d="M22.8277 3.67059L19.7277 0.564706C19.4459 0.564706 19.164 0.282353 18.8822 0.282353C18.6004 0 18.3186 0 18.0367 0C17.4731 0 16.9094 0.282353 16.3458 0.564706L12.9639 3.95294C12.9639 4.23529 12.6821 4.51765 12.6821 4.8C12.6821 5.08235 12.4003 5.36471 12.4003 5.64706C12.4003 6.21176 12.6821 6.77647 12.9639 7.34118L15.5003 9.88235C14.9367 11.0118 14.0912 12.1412 13.2457 13.2706C12.1184 14.1176 10.9911 14.9647 9.86384 15.5294L7.32742 12.9882C7.0456 12.9882 6.76378 12.7059 6.48195 12.7059C6.20013 12.4235 5.9183 12.4235 5.63648 12.4235C5.07283 12.4235 4.50918 12.7059 3.94554 12.9882L0.563648 16.3765C0.563648 16.6588 0.281824 16.9412 0.281824 17.2235C0 17.5059 0 17.7882 0 18.0706C0 18.6353 0.281824 19.4824 0.563648 19.7647L3.66371 22.8706C4.50918 23.7176 5.35466 24 6.48195 24C6.76378 24 6.76378 24 7.0456 24C10.9911 23.4353 14.9367 21.1765 18.0367 18.0706C21.1368 14.9647 23.3914 11.0118 23.955 7.05882C24.2369 5.92941 23.6732 4.8 22.8277 3.67059Z" fill="#9747FF"/>
</svg>
