<svg width="20" height="25" viewBox="0 0 20 25" fill="none" xmlns="http://www.w3.org/2000/svg">
<path fill-rule="evenodd" clip-rule="evenodd" d="M9.44242 24.0254L9.52727 24.0728L9.56121 24.0918C9.6958 24.1629 9.84639 24.2002 9.99939 24.2002C10.1524 24.2002 10.303 24.1629 10.4376 24.0918L10.4715 24.074L10.5576 24.0254C11.0317 23.7505 11.4943 23.4571 11.9442 23.1459C13.1092 22.3417 14.1976 21.4364 15.1964 20.4411C17.5527 18.0824 20 14.5385 20 9.97871C20 7.38528 18.9464 4.89808 17.0711 3.06425C15.1957 1.23043 12.6522 0.200195 10 0.200195C7.34784 0.200195 4.8043 1.23043 2.92893 3.06425C1.05357 4.89808 0 7.38528 0 9.97871C0 14.5373 2.44848 18.0824 4.80364 20.4411C5.80199 21.4364 6.89003 22.3416 8.05455 23.1459C8.50493 23.4571 8.96793 23.7505 9.44242 24.0254ZM10 13.5345C10.9644 13.5345 11.8893 13.1599 12.5713 12.4931C13.2532 11.8262 13.6364 10.9218 13.6364 9.97871C13.6364 9.03564 13.2532 8.13121 12.5713 7.46436C11.8893 6.79751 10.9644 6.42288 10 6.42288C9.03558 6.42288 8.11065 6.79751 7.4287 7.46436C6.74675 8.13121 6.36364 9.03564 6.36364 9.97871C6.36364 10.9218 6.74675 11.8262 7.4287 12.4931C8.11065 13.1599 9.03558 13.5345 10 13.5345Z" fill="#9747FF"/>
</svg>
