<svg width="45" height="40" viewBox="0 0 45 40" fill="none" xmlns="http://www.w3.org/2000/svg">
<mask id="mask0_250_1075" style="mask-type:luminance" maskUnits="userSpaceOnUse" x="0" y="0" width="45" height="40">
<path d="M0 11.3926H3.8345V15.1994H0V11.3926ZM5.67656 18.5211H11.8136V24.614H5.67656V18.5211ZM18.8905 14.7889H28.5896V25.2204H18.0823V15.4327L13.3925 10.9447H6.42842V3.25636H14.1726V10.2636L18.8905 14.7889ZM18.0823 0H24.2945C29.8395 0 34.877 2.24866 38.5235 5.86891C42.1701 9.48915 44.435 14.4903 44.435 19.9953C44.435 25.5004 42.1701 30.5015 38.5235 34.1218C34.877 37.742 29.8395 39.9907 24.2945 39.9907H18.0823V32.7968H24.2945C27.8377 32.7968 31.0613 31.3506 33.4015 29.0273C35.7416 26.704 37.1984 23.5036 37.1984 19.986C37.1984 16.4684 35.7416 13.268 33.4015 10.9447C31.0613 8.62141 27.8377 7.17518 24.2945 7.17518H18.0823V0Z" fill="white"/>
</mask>
<g mask="url(#mask0_250_1075)">
<path d="M44.4444 0H0V40H44.4444V0Z" fill="#9E9EAC"/>
</g>
</svg>
