<svg width="60" height="60" viewBox="0 0 60 60" fill="none" xmlns="http://www.w3.org/2000/svg">
<path d="M37.882 28.01L24.7304 31.9336L13.2887 36.5473L10.0877 37.3194C9.27249 38.0278 8.4177 38.7454 7.49319 39.4719C6.47925 40.2711 5.53489 40.9978 4.8091 41.5245C4.00396 42.1058 2.81105 43.1956 2.20472 43.8858C1.30006 44.9211 0.584355 46.02 0.27617 46.8648C-0.270614 48.3906 -0.00208328 49.9346 1.0516 51.3606C2.40353 53.1769 5.09753 55.0296 8.2387 56.2921C9.83926 56.9371 12.5332 57.7635 14.561 58.2266C17.9308 59.0077 24.452 59.8524 28.0406 59.9796C28.7661 60.0068 29.7404 60.0068 29.7801 59.9796C29.8597 59.934 30.4164 58.9624 31.0626 57.7545C33.2695 53.6401 34.86 49.7802 35.7247 46.4834C36.2416 44.4854 36.6492 41.8243 36.9175 38.6729C36.9872 37.7918 37.0169 34.8401 36.9573 33.841C36.8677 32.2062 36.7087 30.8803 36.4604 29.5815C36.4206 29.3908 36.4105 29.2182 36.4305 29.2091C36.4701 29.1819 36.5894 29.1456 38.2098 28.7186L37.8819 28.0103V28.0101H37.882V28.01ZM34.88 29.6177C34.9992 29.6177 35.3172 32.4058 35.3967 34.1679C35.4167 34.5402 35.4066 34.7855 35.3868 34.7855C35.3074 34.7855 33.7068 33.9227 32.5638 33.2689C31.5697 32.6966 29.681 31.5522 29.3828 31.3343C29.2832 31.2707 29.2931 31.2617 30.1084 31.0073C31.49 30.5804 34.7706 29.6177 34.88 29.6177ZM28.1799 31.634C28.2694 31.634 28.4979 31.7519 29.0447 32.0608C31.0924 33.2324 33.8759 34.6493 35.0688 35.1216C35.4365 35.2669 35.4762 35.2123 34.6314 35.7392C32.8221 36.8653 30.5655 37.9733 27.8019 39.0905C27.3149 39.2903 26.9074 39.4446 26.8975 39.4446C26.8777 39.4446 26.9371 39.2177 27.0166 38.9452C27.6826 36.6835 28.0605 34.3949 28.0804 32.5603C28.0903 31.652 28.0903 31.652 28.1799 31.6249C28.1599 31.634 28.1698 31.634 28.1799 31.634ZM26.7981 32.1153C26.8576 32.1697 26.818 34.2042 26.7384 34.7582C26.5595 36.0842 26.2811 37.3193 25.824 38.709C25.7146 39.0448 25.6151 39.3266 25.5954 39.3447C25.5554 39.39 24.1935 38.173 23.7462 37.7008C22.9708 36.8833 22.3646 36.0659 21.9172 35.2668C21.6886 34.858 21.3308 34.0589 21.3605 34.0316C21.5195 33.9317 26.7584 32.079 26.7981 32.1153ZM20.2968 34.4494C20.3067 34.4494 20.3166 34.4494 20.3267 34.4584C20.3465 34.4766 20.4162 34.622 20.4758 34.7854C20.7938 35.5756 21.5095 36.7381 22.126 37.4828C22.8019 38.3003 23.6867 39.1721 24.4221 39.7443C24.6608 39.9259 24.8794 40.0984 24.9092 40.1257C24.9689 40.1802 24.9888 40.1711 23.3684 40.7343C21.4898 41.3882 19.4419 42.042 17.0958 42.7323C16.5354 42.8973 15.9755 43.0639 15.4161 43.2318C15.3264 43.2591 15.3563 43.2136 15.6148 42.8414C16.7778 41.1792 18.5472 37.9188 19.5413 35.6119C19.7104 35.2122 19.8793 34.8127 19.9092 34.7218C19.949 34.5946 19.9986 34.5492 20.1278 34.4856C20.1974 34.4676 20.267 34.4494 20.2968 34.4494ZM18.3088 35.2032C18.3386 35.2214 17.8316 36.1931 17.3345 37.0832C16.3702 38.7997 15.3165 40.4891 13.905 42.5417C13.6664 42.8958 13.4379 43.2229 13.408 43.2592C13.3583 43.3228 13.3384 43.3045 13.1793 43.023C12.8413 42.4145 12.5629 41.6334 12.4138 40.9159C12.2647 40.2074 12.2946 38.9723 12.4636 38.2094C12.5927 37.6464 12.5829 37.6555 12.8811 37.5192C14.1535 36.9289 18.269 35.1669 18.3088 35.2032ZM35.4565 35.839V36.2204C35.4565 38.2458 35.2179 41.0249 34.8699 43.0503C34.8102 43.4045 34.7604 43.695 34.7506 43.7042C34.7506 43.7042 34.4623 43.6317 34.1244 43.5407C32.6333 43.1138 31.0129 42.4871 29.5516 41.7516C28.5872 41.2702 27.1857 40.48 27.2255 40.4436C27.2353 40.4346 27.6529 40.2348 28.1399 39.9986C30.0885 39.0723 31.9572 38.0732 33.5776 37.0833C34.184 36.7109 35.0984 36.1116 35.2974 35.948L35.4565 35.839ZM10.8034 38.5272C10.8432 38.5272 10.8332 38.5999 10.7736 38.9268C10.7338 39.163 10.6841 39.599 10.6644 39.8986C10.5847 41.2246 10.8234 42.2056 11.5391 43.5497C11.7379 43.9221 11.8971 44.2309 11.887 44.2399C11.8174 44.2944 5.23674 46.0565 3.16893 46.5741C2.55265 46.7284 2.01595 46.8647 1.97598 46.8737C1.90653 46.8919 1.89654 46.8829 1.92633 46.7283C2.15494 45.3934 3.26836 43.6495 4.81905 42.1782C5.85293 41.1973 6.67806 40.6252 8.08962 39.8894C9.10357 39.3628 10.6643 38.5727 10.7835 38.5363C10.7836 38.5272 10.7935 38.5272 10.8034 38.5272ZM26.311 41.0611C26.3209 41.0521 26.5595 41.1702 26.8477 41.3246C28.9751 42.4508 31.9374 43.4953 34.4622 44.0311L34.691 44.0766L34.3728 44.2399C33.0507 44.912 28.7066 46.5649 24.2632 48.0817C23.617 48.2996 22.9808 48.5177 22.8614 48.563C22.7421 48.6084 22.6327 48.6357 22.6327 48.6266C22.6327 48.6174 22.8118 48.2996 23.0402 47.9091C24.2828 45.7839 25.5355 43.1955 26.1716 41.3972C26.2514 41.2246 26.3009 41.0703 26.311 41.0611ZM24.7304 41.5335C24.7405 41.5427 24.6609 41.7333 24.5614 41.9512C23.6966 43.8676 22.5632 45.9566 21.112 48.2998C20.7442 48.8993 20.436 49.3806 20.4259 49.3806C20.4162 49.3806 20.1178 49.217 19.76 49.0173C17.6524 47.8366 15.7837 46.3834 14.5611 44.9757L14.382 44.7759L15.2866 44.5488C18.5273 43.7405 21.2808 42.8687 24.0146 41.797C24.4023 41.6516 24.7205 41.5335 24.7304 41.5335ZM34.5519 44.6668C34.5519 44.6668 34.5618 44.6759 34.5519 44.6668C34.5618 44.8757 34.0548 46.7467 33.6372 48.0998C33.2893 49.2351 32.991 50.1252 32.4444 51.6963C32.2058 52.3868 31.9972 52.9588 31.9871 52.9588C31.9772 52.9588 31.9176 52.9497 31.8579 52.9317C28.9056 52.4411 26.2613 51.76 23.7761 50.8518C23.0802 50.5974 22.0862 50.1887 22.0265 50.1433C22.0067 50.125 22.6032 49.8709 23.3587 49.5711C27.8817 47.7638 32.5737 45.7112 34.184 44.8303C34.3728 44.7213 34.522 44.6668 34.5519 44.6668ZM11.8771 45.3753C11.897 45.3934 10.6345 47.0555 8.86497 49.3169C8.24869 50.1071 7.53298 51.0334 7.26463 51.3785C6.99619 51.7237 6.58867 52.2687 6.36002 52.5956L5.94232 53.186L5.49496 52.8409C4.96807 52.4412 4.05365 51.5875 3.64608 51.1152C2.79111 50.1435 2.21467 49.1172 1.98602 48.1818C1.87664 47.7458 1.87664 47.5277 1.97593 47.5006C2.125 47.4643 4.77921 46.8921 7.26454 46.3652C8.64631 46.0747 10.2466 45.7296 10.8232 45.6024C11.3998 45.4751 11.8672 45.3753 11.8771 45.3753ZM13.1494 45.8203L13.4674 46.1473C14.8991 47.6095 16.3603 48.6905 18.1298 49.6348C18.448 49.7984 18.6865 49.9436 18.6665 49.9529C18.5971 49.9982 12.5231 51.9689 9.70994 52.859C8.12946 53.3675 6.82713 53.7762 6.81732 53.7762C6.80742 53.7762 6.71789 53.7218 6.61833 53.6582L6.4395 53.5401L6.72775 53.1587C7.66212 51.9235 8.83531 50.5703 11.39 47.7548L13.1494 45.8203ZM21.0823 51.0062C21.092 50.9972 21.5294 51.1424 22.0662 51.3242C23.3587 51.7692 24.3824 52.0507 25.7543 52.3686C27.4443 52.7592 29.8896 53.1406 31.3311 53.2496C31.5498 53.2677 31.6691 53.2859 31.6293 53.3132C31.5596 53.3495 30.0985 53.7946 29.0249 54.1034C27.3149 54.5937 22.0961 56.0014 17.8415 57.1186C17.0562 57.3275 16.3802 57.5001 16.3404 57.5091C16.2411 57.5273 15.913 57.4454 15.913 57.4091C15.913 57.3911 16.1515 57.1096 16.4399 56.8007C17.8712 55.2386 19.2929 53.4948 20.4758 51.8418C20.8038 51.3876 21.0823 51.0153 21.0823 51.0062ZM19.3325 51.0517C19.3424 51.0608 18.6367 52.0961 17.4042 53.8761C16.8772 54.63 16.2907 55.4837 16.0819 55.7834C15.8831 56.074 15.5849 56.5282 15.416 56.7825L15.1276 57.2457L14.9786 57.2094C14.6206 57.1185 12.1057 56.3101 11.4396 56.065C10.6145 55.7652 9.75959 55.402 9.12332 55.0932C8.32817 54.7026 7.33417 54.1213 7.41361 54.1033C7.43346 54.0942 8.79538 53.758 10.4355 53.3494C14.7896 52.2685 17.2051 51.6419 18.7858 51.1879C19.0742 51.1061 19.3226 51.0425 19.3325 51.0517ZM31.7088 53.7036H31.7187C31.7584 53.7945 30.1482 57.8814 29.5614 59.171C29.4324 59.4617 29.3828 59.5345 29.3131 59.5252C29.1441 59.5163 26.8081 59.2165 25.3864 59.0258C22.9113 58.6807 18.756 58.0175 17.7123 57.7997L17.4738 57.7543L18.9547 57.4453C22.1359 56.7914 23.6667 56.4373 25.2174 56.0013C27.1758 55.4564 29.1143 54.7752 31.0725 53.9397C31.3807 53.8125 31.6392 53.7126 31.7088 53.7036Z" fill="url(#paint0_linear_35_1443)"/>
<path d="M24.3229 0.000465178C24.1042 -0.0266321 20.5752 1.13587 18.2988 1.98041C15.227 3.1249 12.8414 4.21483 11.3701 5.15917C10.8235 5.51353 10.1374 6.14012 10.0282 6.38529C9.98849 6.47613 9.96851 6.58511 9.96851 6.69408L11.3006 7.84754L14.4716 8.77391L22.0167 10.0091L30.6451 11.3624L30.7347 10.6812C30.7049 10.6812 30.6849 10.6722 30.6554 10.6722L29.5218 10.5086L29.2934 10.1363C28.1203 8.24717 26.828 5.90395 26.0726 4.32363C25.4861 3.09751 24.9294 1.68083 24.6212 0.663574C24.4522 0.04599 24.4323 0.009679 24.3232 0.000632612V0.000423H24.3229V0.000465178ZM24.1637 0.4638H24.1739C24.1837 0.472762 24.2235 0.727234 24.2633 1.02677C24.4321 2.29846 24.7405 3.52437 25.2275 4.85042C25.5953 5.8495 25.5953 5.79506 25.1679 5.67691C24.154 5.42269 19.6111 4.70517 16.3207 4.28741C15.7938 4.22379 15.3465 4.16025 15.3465 4.15121C15.3067 4.1149 17.7222 2.96136 18.7859 2.50736C20.1478 1.93505 23.8855 0.509157 24.1637 0.4638ZM14.5809 4.53258L14.9687 4.65052C17.076 5.30454 22.3743 6.23096 25.297 6.44891C25.625 6.47617 25.9035 6.50348 25.9132 6.50348C25.9231 6.51253 25.645 6.64877 25.287 6.8031C23.8756 7.44795 22.3247 8.23812 21.2511 8.84666C20.9331 9.02822 20.6447 9.17363 20.605 9.17363C20.5653 9.17363 20.3566 9.13728 20.1379 9.11001L19.7403 9.05544L18.7463 8.16533C16.9967 6.61237 15.6248 5.41356 15.098 4.95935L14.5809 4.53258ZM14.1834 4.81407L15.585 6.4126C16.3504 7.29357 17.1258 8.15633 17.2949 8.34697C17.4637 8.53783 17.603 8.69229 17.5931 8.70133C17.5533 8.72856 15.5653 8.37428 14.5114 8.15641C13.4279 7.92929 12.9806 7.82031 12.3146 7.62967L11.7678 7.46612V7.33889C11.7777 6.73035 12.6228 5.82219 14.0542 4.8959L14.1834 4.81407ZM26.0923 6.99383C26.1322 6.99383 26.1817 7.07554 26.301 7.32075C26.639 8.00187 27.6929 9.83657 27.9511 10.1907C28.0309 10.3089 28.1698 10.318 26.7683 10.1091C23.3985 9.60941 22.3148 9.44611 22.3148 9.42793C22.3148 9.41889 22.4143 9.35527 22.5435 9.29165C23.5873 8.76499 24.641 8.09284 25.5755 7.37532C25.8041 7.20273 26.0129 7.03927 26.0525 7.01196C26.0624 6.99383 26.0824 6.98478 26.0923 6.99383Z" fill="url(#paint1_linear_35_1443)"/>
<path d="M10.0977 6.25818C10.0977 6.25818 9.8791 6.57618 10.0878 7.04848C10.2172 7.33901 10.5949 7.69316 11.0222 8.05653C11.0222 8.05653 15.4458 11.9982 15.9827 12.5613C18.428 15.1406 19.4917 17.6836 19.5911 21.1894C19.6508 23.4418 19.1834 25.4217 18.0204 27.7195C15.9528 31.8429 11.5887 36.3931 4.85889 41.4428L5.84317 41.1431C6.47934 40.707 7.34422 40.244 9.37206 39.2267C14.0541 36.8834 19.3227 34.7309 25.7842 32.5149C35.0885 29.3179 50.3874 25.5759 59.0953 24.3591L60.0001 24.2318L59.8608 24.032C59.0657 22.9058 58.5188 22.2065 57.8627 21.4618C55.9542 19.3002 53.6381 17.5474 50.8049 16.0942C46.9081 14.1053 41.868 12.5523 35.4862 11.3988C34.2834 11.1808 31.6392 10.763 29.492 10.4633C24.9391 9.81865 21.9966 9.37353 18.7561 8.86492C17.5931 8.6832 15.8533 8.4108 14.7002 8.1838C14.1038 8.06561 12.9607 7.82044 12.066 7.53891C11.3503 7.28448 10.3164 7.03018 10.0977 6.25818ZM12.6625 8.52882C12.6723 8.51986 12.8314 8.57418 13.0403 8.6378C13.418 8.75574 13.905 8.89202 14.4818 9.03743C14.918 9.14707 15.3554 9.25302 15.7939 9.35527C16.3903 9.49143 16.8873 9.61862 16.8972 9.61862C16.9669 9.68224 17.9709 12.6156 18.3089 13.7418C18.438 14.1688 18.5376 14.532 18.5276 14.532C18.5174 14.5412 18.4082 14.3867 18.279 14.1778C17.1159 12.3069 15.2769 10.4087 13.1495 8.88285C12.8713 8.70137 12.6625 8.53787 12.6625 8.52882ZM17.5533 9.76399C17.6031 9.76399 17.8218 9.79125 18.09 9.8457C19.78 10.1908 22.812 10.7176 24.7503 11.0173C25.0784 11.0627 25.3369 11.1173 25.3369 11.1354C25.3369 11.1536 25.2175 11.2171 25.0684 11.2898C24.7405 11.4441 23.4183 12.1616 22.981 12.4341C21.8775 13.1062 20.8835 13.8327 20.1677 14.4866C19.8795 14.7501 19.6308 14.968 19.6308 14.968C19.6308 14.968 19.5714 14.8137 19.5214 14.6228C19.1638 13.3604 18.4181 11.4894 17.7422 10.1726C17.6328 9.96376 17.5432 9.77299 17.5432 9.7549C17.5432 9.77304 17.5433 9.76399 17.5533 9.76399ZM26.1619 11.2625C26.2216 11.2806 26.321 11.5895 26.5198 12.2706C26.8876 13.5876 27.0567 15.0589 26.997 16.4303C26.977 16.8118 26.9572 17.1659 26.9372 17.2114L26.9075 17.3021L26.3906 17.1478C25.3269 16.839 23.5973 16.3757 22.1162 15.9944C21.2711 15.7854 20.5854 15.5947 20.5854 15.5766C20.5854 15.522 21.8181 14.3959 22.3448 13.9691C23.3487 13.1606 26.0724 11.2352 26.1619 11.2625ZM26.8478 11.3533C26.8777 11.3262 30.9634 11.9708 32.8223 12.2979C34.2041 12.543 36.2121 12.9245 36.3313 12.97C36.391 12.9881 36.1821 13.0971 35.5161 13.3695C32.8918 14.4504 30.9433 15.422 29.0051 16.6029C28.4981 16.9116 28.0706 17.1659 28.0607 17.1659C28.0508 17.1659 28.0408 16.9026 28.0408 16.5847C28.0408 14.8591 27.6631 13.1153 26.9671 11.644C26.8975 11.4987 26.8379 11.3625 26.8478 11.3533ZM37.4148 13.2606C37.4447 13.2879 37.3154 14.0236 37.1961 14.4594C36.8383 15.8127 35.8741 17.82 34.6912 19.709C34.4823 20.045 34.2935 20.3175 34.2734 20.3266C34.2538 20.3356 33.9853 20.1993 33.6771 20.0359C32.524 19.4183 31.2119 18.8371 29.7804 18.2921C29.3829 18.1377 29.0348 18.0105 29.0249 17.9925C28.9552 17.9379 32.1562 16.0034 33.8461 15.077C35.1881 14.3323 37.375 13.2242 37.4148 13.2606ZM38.1702 13.3696C38.2598 13.3696 40.069 13.8237 41.0132 14.078C43.3494 14.7138 46.0333 15.6129 47.7829 16.3395L48.5084 16.6393L48.0016 16.7482C43.7272 17.6472 40.069 18.6828 36.54 19.9906C36.2517 20.0995 35.9932 20.1904 35.9735 20.1904C35.9535 20.1904 36.053 19.9815 36.1822 19.7271C37.2459 17.6655 37.9318 15.513 38.1006 13.6783C38.1107 13.5057 38.1404 13.3696 38.1702 13.3696ZM20.1578 17.1478C20.1876 17.1205 21.5694 17.4203 22.3149 17.6109C23.4481 17.9016 25.8537 18.6372 25.8537 18.6917C25.8537 18.7008 25.5854 18.9097 25.2674 19.1641C23.9652 20.154 22.7125 21.1983 21.2114 22.5244C20.764 22.9151 20.3864 23.2329 20.3666 23.2329C20.3466 23.2329 20.3369 23.1783 20.3466 23.1057C20.5752 21.5798 20.5257 19.6181 20.2075 17.6291C20.1776 17.3747 20.1479 17.1569 20.1578 17.1478ZM49.1946 17.1751C49.2143 17.1932 48.5583 18.1377 48.1409 18.6735C47.5445 19.4546 46.6695 20.4901 44.6913 22.7606C43.6477 23.9594 42.4745 25.3127 42.087 25.7668C41.6892 26.2209 41.3613 26.6022 41.3512 26.6022C41.3413 26.6022 41.2123 26.4389 41.073 26.2391C39.9596 24.7132 38.6275 23.3781 37.0469 22.1793C36.7487 21.9522 36.4208 21.707 36.3114 21.6343C36.202 21.5617 36.1125 21.489 36.1125 21.48C36.1125 21.4528 37.8023 20.7897 39.0849 20.3175C41.3315 19.4819 44.3929 18.4829 46.6894 17.838C47.8923 17.4929 49.1746 17.1569 49.1946 17.1751ZM49.96 17.3566C49.9996 17.3476 50.2383 17.4566 50.5266 17.6109C52.9423 18.8733 55.308 20.4991 57.177 22.1702C57.7038 22.6426 59.006 23.8777 58.9861 23.8868C58.9861 23.8868 58.5288 23.9231 57.9921 23.9594C53.8071 24.2501 48.4491 25.0583 43.2997 26.1935C42.9519 26.2661 42.6438 26.3297 42.6238 26.3297C42.6041 26.3297 42.9916 25.9756 43.4788 25.5488C46.5007 22.8877 47.8826 21.2075 49.5127 18.2103C49.7413 17.7654 49.9402 17.3839 49.96 17.3566C49.9501 17.3566 49.9501 17.3566 49.96 17.3566ZM27.822 19.4275C27.9613 19.4546 29.2535 20.0088 30.2277 20.4537C31.1224 20.8623 32.4644 21.5163 32.534 21.5707C32.5439 21.5798 32.0666 21.8069 31.4804 22.0703C29.6114 22.924 28.011 23.7322 26.3408 24.6587C25.8637 24.9221 25.4661 25.1402 25.4562 25.1402C25.4164 25.1402 25.4263 25.1036 25.6948 24.6587C26.5895 23.1693 27.3051 21.3892 27.7128 19.6544C27.7524 19.5182 27.7922 19.4275 27.822 19.4275ZM26.5297 19.6454C26.5596 19.6727 26.2216 20.7897 26.0129 21.3982C25.6052 22.5517 24.9193 23.9957 24.2534 25.0856C24.0942 25.3398 23.8557 25.7122 23.7264 25.9211L23.478 26.2843L22.9213 25.794C22.2752 25.2218 21.7482 24.8676 21.0724 24.5496C20.8038 24.4226 20.5952 24.3135 20.5952 24.2955C20.5952 24.2228 22.295 22.8151 23.5973 21.7979C24.5316 21.0622 26.4999 19.6181 26.5297 19.6454ZM34.4327 22.6153L34.9199 22.9058C36.033 23.5689 37.3451 24.4498 38.3493 25.2218C38.9158 25.6486 40.0092 26.5478 40.2281 26.7658L40.3472 26.884L39.5422 27.0928C34.9893 28.2461 31.4703 29.2724 27.3647 30.653C26.9075 30.8074 26.5198 30.9345 26.4899 30.9345C26.4304 30.9345 26.3806 30.9799 27.4046 30.117C30.029 27.9103 32.355 25.4761 34.0847 23.1056L34.4327 22.6153ZM32.3551 23.0876C32.3749 23.1057 31.013 24.8585 30.1978 25.8485C29.2237 27.0292 27.4939 29.0091 26.3011 30.2986C25.8042 30.8346 25.3768 31.2796 25.3568 31.2887C25.3269 31.2977 25.317 31.1615 25.317 30.9526C25.317 29.8536 25.0089 28.682 24.472 27.683C24.2434 27.2653 24.2036 27.1653 24.2535 27.12C24.4423 26.9655 27.335 25.4579 29.164 24.5588C30.3967 23.9594 32.325 23.0694 32.3551 23.0876ZM19.7899 25.903C19.8198 25.903 20.0484 26.0119 20.3069 26.1392C20.9431 26.457 21.5097 26.8112 22.0167 27.1927C22.0365 27.2108 21.7781 27.4016 21.4401 27.6286C20.4957 28.2461 19.0643 29.2362 18.2294 29.8447C17.3544 30.4805 17.3248 30.4986 17.4241 30.3624C18.0803 29.4451 18.4082 28.9274 18.7562 28.2644C19.0643 27.6742 19.3724 26.9748 19.5911 26.3663C19.6706 26.1029 19.7701 25.903 19.7899 25.903ZM23.14 28.3007C23.1896 28.2917 23.2494 28.3733 23.5177 28.7367C24.0843 29.5085 24.5217 30.544 24.6312 31.3796L24.6509 31.5613L23.2892 32.0427C20.8536 32.9054 18.6071 33.7592 17.086 34.3948C16.6587 34.5766 15.9131 34.9034 15.4261 35.1216C14.9389 35.3485 14.5413 35.5211 14.5413 35.512C14.5413 35.503 14.8494 35.2941 15.2271 35.0397C18.1996 33.069 20.7741 30.9073 22.7026 28.7458C22.9114 28.5187 23.1003 28.3098 23.1201 28.3007L23.14 28.3007ZM21.5993 28.6459C21.639 28.6822 20.5058 29.8537 19.7304 30.5712C17.8119 32.3605 15.9132 33.7592 13.5572 35.1216C13.259 35.2941 12.9906 35.4484 12.9607 35.4667C12.8911 35.503 12.9805 35.4121 14.0144 34.3858C14.6706 33.7409 15.1675 33.196 15.7342 32.524C16.1119 32.0791 16.1815 32.0155 16.7283 31.6611C18.1896 30.6984 21.5595 28.6095 21.5993 28.6459Z" fill="url(#paint2_radial_35_1443)"/>
<defs>
<linearGradient id="paint0_linear_35_1443" x1="9.89446" y1="54.0648" x2="14.4183" y2="51.1391" gradientUnits="userSpaceOnUse">
<stop stop-color="#909CA9"/>
<stop offset="1" stop-color="#EDEDEE"/>
</linearGradient>
<linearGradient id="paint1_linear_35_1443" x1="10.0034" y1="5.66367" x2="13.8299" y2="5.66367" gradientUnits="userSpaceOnUse">
<stop stop-color="#939FAB"/>
<stop offset="1" stop-color="#DCDEE1"/>
</linearGradient>
<radialGradient id="paint2_radial_35_1443" cx="0" cy="0" r="1" gradientUnits="userSpaceOnUse" gradientTransform="translate(29.3119 21.6975) rotate(-172.186) scale(4.9244 9.03338)">
<stop stop-color="#EE352C"/>
<stop offset="1" stop-color="#A91D22"/>
</radialGradient>
</defs>
</svg>
