<svg width="54" height="54" viewBox="0 0 54 54" fill="none" xmlns="http://www.w3.org/2000/svg">
<path fill-rule="evenodd" clip-rule="evenodd" d="M31.6632 0.75C31.3029 0.755035 30.9458 0.818353 30.6057 0.9375C33.6338 2.92875 30.062 5.8125 31.7307 8.25C31.6157 7.43013 31.7461 6.59458 32.1055 5.84876C32.4649 5.10295 33.0372 4.4803 33.7501 4.05938C34.2845 3.615 34.6276 3.45563 34.5132 2.72063C34.3276 1.51688 32.7226 0.75 31.6632 0.75ZM35.9757 1.52625C35.5576 3.63188 35.0382 3.70875 33.4951 5.06438C32.8932 5.53887 32.4685 6.20206 32.2892 6.94723C32.11 7.6924 32.1867 8.4762 32.507 9.1725C26.132 6.6975 17.9607 5.20125 11.9701 9.48375C9.81571 11.0231 8.50134 13.2338 5.84446 14.1356C4.12696 14.7244 2.43946 14.55 1.36321 16.2525C0.969599 16.7441 0.763979 17.3599 0.78322 17.9893C0.802462 18.6188 1.04531 19.2208 1.46821 19.6875C1.78884 20.0156 2.40571 20.2256 2.66071 20.5594C2.80884 20.7469 2.80509 20.9344 2.94571 21.1838C3.19423 21.7649 3.5534 22.2922 4.00321 22.7362C4.27884 22.9631 5.22571 23.1844 5.38696 23.4263C5.58946 23.7281 5.06446 24.9263 5.50509 25.1138C5.80134 25.2506 6.66946 23.7188 6.75384 23.5838C6.58134 24.7894 6.35446 26.9288 7.71009 25.1475C8.35321 24.3019 8.39259 24.0225 9.47446 23.835C10.1668 23.7147 10.8666 23.6421 11.5688 23.6175C15.5808 23.4771 19.4937 24.881 22.5014 27.5399C25.5091 30.1987 27.3823 33.9099 27.7351 37.9088C27.5326 36.9713 26.3082 35.4712 25.1682 35.8275C24.6826 35.9775 24.5026 36.8156 24.1838 37.3013C23.7808 37.917 23.2843 38.4661 22.712 38.9287C22.8088 38.0198 22.7633 37.1012 22.577 36.2062C22.2357 37.6087 21.5513 39.9356 19.8282 39.5588C19.2542 39.4711 18.7164 39.2239 18.2761 38.8453C17.8358 38.4667 17.5108 37.9719 17.3382 37.4175C17.1151 35.9925 18.6207 34.3219 16.2001 34.2037C11.3438 33.9656 12.467 41.1075 15.3338 42.9694C14.675 43.0423 14.0323 43.2215 13.4307 43.5C15.2518 44.5576 17.3038 45.1542 19.4081 45.2379C21.5124 45.3215 23.6052 44.8897 25.5045 43.9799C27.4038 43.0702 29.0521 41.7101 30.3058 40.018C31.5596 38.326 32.3809 36.3531 32.6982 34.2713C33.1155 36.1779 33.1059 38.1532 32.6701 40.0556C32.4371 41.0666 32.0886 42.0474 31.6313 42.9787C31.0115 44.2367 30.1879 45.3834 29.1938 46.3725C28.6051 46.9556 27.5251 47.5425 27.1538 48.1369C29.4263 47.8356 31.6469 47.2249 33.7538 46.3219C31.5728 49.3094 28.6681 51.6934 25.3126 53.25C28.9103 52.9955 32.3881 51.8494 35.4323 49.9152C38.4765 47.981 40.9914 45.3195 42.7501 42.1706C42.1896 45.3198 40.9446 48.3076 39.1032 50.9231C41.58 49.265 43.6871 47.1127 45.2924 44.6014C46.8976 42.0901 47.9663 39.274 48.4313 36.33C48.8931 38.4851 49.0252 40.6978 48.8232 42.8925C50.8578 40.0655 52.2322 36.818 52.8452 33.3893C53.4582 29.9606 53.2941 26.4381 52.3651 23.0812C51.6545 20.4717 50.5889 17.9721 49.1982 15.6525C48.6612 14.7487 48.0734 13.876 47.4376 13.0387C47.1882 12.7144 45.8551 11.5275 45.8551 11.1637C45.8438 11.2 45.8345 11.2 45.827 11.1637C45.827 17.2537 39.2645 21.1631 33.7688 19.5319C35.8585 19.3698 37.8336 18.5121 39.3787 17.0959C40.9238 15.6796 41.9497 13.7865 42.2926 11.7188C42.5962 9.54947 42.1307 7.34235 40.9768 5.4805C39.8229 3.61865 38.0535 2.21962 35.9757 1.52625Z" fill="#E0234E"/>
</svg>
