<svg width="60" height="60" viewBox="0 0 60 60" fill="none" xmlns="http://www.w3.org/2000/svg">
<g clip-path="url(#clip0_35_1422)">
<path d="M23.535 52.5675C21.995 53.46 21.7025 53.565 20.255 54.0775C19.905 54.1975 19.375 54.41 20.455 55.03L27.705 59.375C28.3975 59.7825 29.1975 59.995 29.985 59.995L29.99 60C30.7875 60 31.575 59.785 32.2675 59.38L53.9725 46.6875C55.3825 45.855 56.2525 44.3175 56.2525 42.675V17.305C56.2525 15.65 55.385 14.1125 53.9725 13.2925L32.2675 0.587529C30.905 -0.197471 29.0825 -0.197471 27.7075 0.587529L6.0275 13.28C4.62 14.1025 3.75 15.65 3.75 17.2925V42.6625C3.75 44.3175 4.6175 45.855 6.0275 46.675L11.715 49.9975C14.465 51.38 15.45 51.38 16.7075 51.38C20.785 51.38 23.135 48.88 23.135 44.5225V19.4625C23.135 19.1075 22.8425 18.8325 22.5 18.8325H19.75C19.3975 18.8325 19.115 19.105 19.115 19.4625V44.51C19.115 46.45 17.14 48.3675 13.9075 46.7375L7.9625 43.26C7.755 43.1525 7.625 42.915 7.625 42.675V17.305C7.625 17.0575 7.755 16.8175 7.965 16.6975L29.645 4.00503C29.8425 3.88503 30.115 3.88503 30.315 4.00503L52.0075 16.685C52.2175 16.815 52.3475 17.0425 52.3475 17.2925V42.675C52.3475 42.91 52.22 43.15 52.02 43.27L30.315 55.9625C30.1275 56.0825 29.845 56.0825 29.645 55.9625L24.075 52.6175C23.91 52.51 23.7 52.4725 23.535 52.5675Z" fill="#8CC03E"/>
<path d="M36.685 38.6725C30.94 38.6725 29.68 37.2075 29.26 34.315C29.2125 34.005 28.955 33.78 28.6375 33.78H25.83C25.4775 33.78 25.2075 34.065 25.2075 34.41C25.2075 38.1125 27.1925 42.53 36.6975 42.53C43.5575 42.5175 47.51 39.77 47.51 34.9825L47.5025 34.9851C47.5025 30.2351 44.33 28.9725 37.6675 28.08C30.9225 27.175 30.2425 26.71 30.2425 25.115C30.2425 23.795 30.82 22.0325 35.8125 22.0325C40.2675 22.0325 41.9125 23.0075 42.5925 26.055C42.65 26.3425 42.91 26.555 43.205 26.555H46.025C46.2 26.555 46.365 26.4851 46.4825 26.3525C46.6 26.22 46.6575 26.0425 46.6475 25.865C46.2125 20.615 42.77 18.175 35.8125 18.175C29.62 18.175 25.93 20.82 25.93 25.2575C25.93 30.0675 29.6075 31.4025 35.5425 31.995C42.6525 32.7 43.2025 33.7575 43.2025 35.175C43.2075 37.6275 41.2575 38.6725 36.685 38.6725Z" fill="#8CC03E"/>
</g>
<defs>
<clipPath id="clip0_35_1422">
<rect width="60" height="60" fill="white"/>
</clipPath>
</defs>
</svg>
