<svg width="42" height="42" viewBox="0 0 42 42" fill="none" xmlns="http://www.w3.org/2000/svg">
<path d="M21 0.504395L0.6875 10.6606V31.3394L21 41.4956L41.3125 31.3394V30.375V10.6606L21 0.504395ZM21 3.99561L38.1875 12.5894V29.4106L21 38.0044L3.8125 29.4106V12.5894L21 3.99561ZM16.3125 11.625C11.1562 11.625 6.9375 15.8438 6.9375 21C6.9375 26.1562 11.1562 30.375 16.3125 30.375C18.6562 30.375 20.8444 29.4375 22.4069 28.0312L19.7488 26.1575C18.8113 26.7825 17.5625 27.25 16.3125 27.25C12.875 27.25 10.0625 24.4375 10.0625 21C10.0625 17.5625 12.875 14.75 16.3125 14.75C17.5625 14.75 18.8113 15.2175 19.7488 15.8425L22.4069 13.9688C20.8444 12.5625 18.6562 11.625 16.3125 11.625ZM24.125 14.75V16.3125H22.5625V19.4375H24.125V22.5625H22.5625V25.6875H24.125V27.25H27.25V25.6875H30.375V27.25H33.5V25.6875H35.0625V22.5625H33.5V19.4375H35.0625V16.3125H33.5V14.75H30.375V16.3125H27.25V14.75H24.125ZM27.25 19.4375H30.375V22.5625H27.25V19.4375Z" fill="white"/>
</svg>
