<svg width="60" height="60" viewBox="0 0 60 60" fill="none" xmlns="http://www.w3.org/2000/svg">
<path d="M55.3257 35.1994C55.1674 34.7386 54.882 34.332 54.5025 34.0264C54.1229 33.7208 53.6647 33.5288 53.1807 33.4725C52.6089 33.4038 52.0295 33.4361 51.4689 33.5682C50.6018 33.7597 49.7197 33.8758 48.8326 33.915C51.2049 29.9127 53.0168 25.6038 54.2176 21.1088C56.0045 14.1919 55.0501 11.0419 53.9345 9.61504C52.453 7.7407 50.5569 6.23553 48.3953 5.21786C46.2337 4.20018 43.8656 3.69775 41.477 3.75004C39.2858 3.72951 37.1037 4.03536 35.0026 4.65754C33.7512 4.44298 32.4847 4.32762 31.2151 4.31254C28.9074 4.22492 26.6216 4.78825 24.6189 5.93816C23.1 5.42463 21.5426 5.03339 19.9614 4.76816C18.1181 4.32597 16.2057 4.25138 14.3336 4.54865C12.4615 4.84593 10.6664 5.50923 9.05073 6.50066C5.79948 8.79566 4.29198 12.7857 4.57135 18.36C5.07157 22.5186 5.95405 26.6222 7.2076 30.6188C7.92955 33.1152 8.87981 35.5398 10.0464 37.8619C10.9079 39.9803 12.5456 41.6898 14.6251 42.6413C15.3873 42.8924 16.2029 42.9352 16.9872 42.7651C17.7715 42.5949 18.496 42.2182 19.0857 41.6738C19.3534 41.9907 19.6698 42.2629 20.0232 42.48C20.5709 42.82 21.168 43.073 21.7932 43.23C23.8397 43.8 26.0181 43.668 27.9807 42.855C27.992 43.1757 28.0014 43.4832 28.007 43.7494C28.0182 44.1788 28.0314 44.6007 28.0464 44.9963C28.0241 47.0878 28.3026 49.1716 28.8732 51.1838C28.9032 51.2644 28.9426 51.3844 28.9839 51.5138C29.3132 52.7454 29.953 53.8719 30.842 54.7857C31.9079 55.7644 33.3144 56.2873 34.7607 56.2425C35.3768 56.2386 35.9908 56.1701 36.5926 56.0382C37.7334 55.8949 38.834 55.5247 39.8294 54.9492C40.8248 54.3737 41.6949 53.6047 42.3882 52.6875C43.9089 50.5219 44.6495 47.2613 44.7826 42.1219L44.8314 41.7057L44.8632 41.4338L45.2214 41.4657H45.3132C47.3409 41.5515 49.3633 41.2011 51.2439 40.4382C52.427 39.8888 56.2201 37.8863 55.3257 35.1882" fill="black"/>
<path d="M51.917 35.7244C45.9864 36.9469 45.5795 34.9406 45.5795 34.9406C51.8401 25.65 54.4576 13.8563 52.1982 10.9706C46.037 3.09563 35.3701 6.82126 35.192 6.91688L35.1339 6.92813C33.831 6.66665 32.5064 6.52854 31.1776 6.51563C28.9368 6.4032 26.7255 7.06526 24.9151 8.39063C24.9151 8.39063 5.88762 0.551259 6.77262 18.2494C6.96012 22.0144 12.1689 46.7381 18.3807 39.27C20.6514 36.54 22.8451 34.23 22.8451 34.23C23.95 34.9757 25.2793 35.315 26.6064 35.19L26.7132 35.1C26.6819 35.4548 26.6964 35.8121 26.7564 36.1631C25.1551 37.9519 25.6314 38.265 22.427 38.9231C19.1907 39.5906 21.092 40.7775 22.3332 41.0888C23.652 41.5154 25.0719 41.5145 26.3902 41.0862C27.7084 40.6579 28.8577 39.824 29.6739 38.7038L29.5801 39.0788C30.2064 39.5813 30.647 42.345 30.5739 44.8519C30.3694 46.7163 30.4963 48.6023 30.9489 50.4225C31.4439 51.7669 31.9351 54.7894 36.1407 53.8894C37.6363 53.7416 39.0272 53.0558 40.055 51.9594C41.0827 50.863 41.6774 49.4307 41.7282 47.9288C41.9157 45.615 42.3151 45.9563 42.3395 43.8881L42.6657 42.9094C43.0407 39.7725 42.7257 38.76 44.8895 39.2306L45.4164 39.2775C47.0904 39.3478 48.7606 39.0668 50.3195 38.4525C52.9557 37.23 54.5176 35.1863 51.9189 35.7244" fill="#336791"/>
<path d="M26.0286 19.9332C25.5985 19.8427 25.1502 19.9092 24.7649 20.1207C24.7147 20.1568 24.6722 20.2026 24.64 20.2554C24.6078 20.3083 24.5865 20.367 24.5774 20.4282C24.5774 20.6444 24.6553 20.8534 24.7968 21.0169C25.0483 21.3624 25.424 21.597 25.8449 21.6713C25.9008 21.679 25.9572 21.6828 26.0136 21.6825C26.2922 21.6862 26.5652 21.6041 26.7955 21.4475C27.0259 21.2909 27.2027 21.0673 27.3018 20.8069C27.3674 20.3419 26.6905 20.0307 26.0343 19.9388M43.738 19.9538C43.6874 19.5882 43.0368 19.485 42.4255 19.5788C41.8143 19.6725 41.2124 19.9425 41.263 20.3082C41.3584 20.5375 41.5198 20.7333 41.7269 20.8706C41.9339 21.0078 42.1771 21.0803 42.4255 21.0788C42.4776 21.0787 42.5296 21.0749 42.5811 21.0675C42.9063 21.0104 43.2035 20.8476 43.4268 20.6044C43.6134 20.4405 43.7274 20.2092 43.7436 19.9613" fill="white"/>
<path d="M53.8893 35.5856C53.6624 34.9012 52.9349 34.6819 51.7255 34.9312C48.1349 35.6812 46.8505 35.1581 46.4268 34.8487C49.2701 30.4839 51.4047 25.6966 52.7511 20.6644C53.2961 18.6739 53.6107 16.6273 53.6886 14.565C53.8332 13.1224 53.4977 11.6725 52.7343 10.44C51.3829 8.73927 49.6551 7.37558 47.6869 6.4564C45.7187 5.53722 43.5639 5.08765 41.3924 5.14313C39.1618 5.10822 36.9419 5.4577 34.8299 6.17625C33.622 5.8782 32.3839 5.71904 31.1399 5.70188C28.9017 5.60353 26.6894 6.21302 24.8174 7.44375C23.151 6.8345 21.4309 6.38375 19.6799 6.0975C16.3327 5.28748 12.8011 5.82982 9.85115 7.60688C7.03865 9.60188 5.72615 13.1681 5.98677 18.2063C6.47929 22.2441 7.34102 26.2283 8.56115 30.1087C10.5674 36.6806 12.748 40.4025 15.043 41.1712C15.3397 41.2712 15.6506 41.3225 15.9636 41.3231C16.5462 41.287 17.113 41.1187 17.6207 40.8308C18.1285 40.543 18.5641 40.1432 18.8943 39.6619C20.1968 38.0994 21.5436 36.5756 22.9349 35.0906C23.8293 35.5747 24.8246 35.8425 25.8411 35.8725V35.9512C25.6661 36.1587 25.4955 36.37 25.3293 36.585C24.6261 37.4756 24.4818 37.6612 22.2205 38.1281C21.5774 38.2612 19.8693 38.6137 19.8449 39.8156C19.8186 41.1281 21.8643 41.6737 22.0949 41.7319C22.8601 41.9287 23.6467 42.0307 24.4368 42.0356C26.1648 42.0675 27.8404 41.4415 29.1243 40.2844C28.9325 43.8527 29.1724 47.4311 29.8386 50.9419C30.1465 52.0658 30.8128 53.0586 31.7364 53.7693C32.6599 54.4799 33.7902 54.8697 34.9555 54.8794C35.5336 54.8776 36.11 54.8147 36.6749 54.6919C38.2174 54.5587 39.6615 53.8785 40.7466 52.7742C41.8317 51.6698 42.4863 50.214 42.5924 48.6694C42.9243 46.7456 43.4943 42.1537 43.7624 39.69C44.44 39.8762 45.1411 39.9628 45.8437 39.9469C47.4617 39.9585 49.0664 39.6528 50.5668 39.0469C51.9018 38.4262 54.3168 36.9075 53.8724 35.5856H53.8893ZM45.0955 18.9375C45.0715 19.6336 44.9988 20.3272 44.878 21.0131C44.7386 21.8192 44.651 22.6334 44.6155 23.4506C44.6092 24.3728 44.6719 25.2941 44.803 26.2069C45.208 28.0751 45.0588 30.021 44.3736 31.8056C44.2281 31.5475 44.0985 31.2808 43.9855 31.0069C43.8768 30.7425 43.6386 30.3169 43.3124 29.73C42.0374 27.4425 39.0486 22.0837 40.5786 19.8975C41.0343 19.2469 42.1911 18.585 45.0936 18.9375H45.0955ZM41.5761 6.62063C43.4954 6.58139 45.3976 6.98804 47.133 7.80858C48.8684 8.62912 50.3898 9.84118 51.5774 11.3494C53.4055 13.6837 51.3899 24.3094 45.568 33.4744L45.3918 33.2512L45.3186 33.1594C46.4753 30.9738 46.8118 28.4465 46.2674 26.0344C46.1421 25.1952 46.0794 24.3479 46.0799 23.4994C46.1139 22.7412 46.1959 21.9859 46.3255 21.2381C46.4942 20.3148 46.5715 19.3772 46.5561 18.4387C46.5867 18.3099 46.5949 18.1767 46.5805 18.045C45.9592 15.5343 44.7278 13.2157 42.9955 11.295C41.439 9.46077 39.4921 7.99761 37.2974 7.0125C38.7029 6.71942 40.1369 6.58483 41.5724 6.61125L41.5761 6.62063ZM17.773 38.7262C16.5974 40.14 15.7836 39.87 15.523 39.78C13.783 39.1987 11.7618 35.52 9.9824 29.685C8.80092 25.9186 7.96005 22.0537 7.4699 18.1369C7.2449 13.6369 8.33615 10.4981 10.7136 8.81062C14.5818 6.0675 20.9436 7.71 23.4993 8.5425C23.4618 8.57813 23.4243 8.61188 23.3886 8.64937C19.1943 12.885 19.2936 20.1225 19.3049 20.565C19.3049 20.7356 19.318 20.9775 19.3386 21.315C19.4924 23.3312 19.4415 25.3578 19.1868 27.3637C19.0125 28.5123 19.102 29.6855 19.4487 30.7943C19.7953 31.9031 20.3899 32.9184 21.1874 33.7631C21.3536 33.9356 21.5274 34.0994 21.7086 34.2544C20.3539 35.7072 19.0408 37.1985 17.7711 38.7262H17.773ZM22.2543 32.745C21.6076 32.0614 21.1255 31.2392 20.8444 30.3412C20.5634 29.4431 20.4909 28.4928 20.6324 27.5625C20.9012 25.4603 20.9558 23.3363 20.7955 21.2231C20.7856 21.0713 20.7768 20.9194 20.7693 20.7675C22.3399 19.5837 24.2891 19.0149 26.2499 19.1681C26.701 19.2704 27.1091 19.5105 27.4176 19.8553C27.726 20.2 27.9195 20.6322 27.9711 21.0919C29.1824 26.6962 28.1305 29.0306 27.2868 30.9075C27.1124 31.2937 26.9474 31.6575 26.8086 32.0325L26.6999 32.325C26.4304 33.0044 26.2 33.6987 26.0099 34.4044C25.305 34.3943 24.6094 34.2418 23.9649 33.956C23.3205 33.6702 22.7405 33.257 22.2599 32.7412L22.2543 32.745ZM22.4661 40.3012C22.1182 40.2156 21.7869 40.0731 21.4855 39.8794C21.8207 39.7362 22.1711 39.6318 22.5299 39.5681C25.1886 39.0206 25.5993 38.6306 26.4974 37.4962C26.7036 37.2356 26.9361 36.9337 27.2586 36.5794C27.7386 36.0412 27.9599 36.1331 28.3574 36.2981C28.5459 36.4005 28.7113 36.5408 28.8429 36.7103C28.9746 36.8797 29.0697 37.0745 29.1224 37.2825C29.1748 37.4335 29.1936 37.5942 29.1774 37.7532C29.1612 37.9122 29.1104 38.0658 29.0286 38.2031C28.3018 39.2068 27.2732 39.9519 26.0929 40.3297C24.9127 40.7075 23.6426 40.6982 22.468 40.3031L22.4661 40.3012ZM36.3861 53.25C35.8599 53.4329 35.3011 53.5029 34.746 53.4552C34.1909 53.4075 33.6522 53.2433 33.1649 52.9733C32.6776 52.7033 32.2527 52.3335 31.918 51.8882C31.5833 51.4428 31.3463 50.9319 31.2224 50.3887C30.5621 46.1394 30.3735 41.8301 30.6599 37.5394C30.6618 37.4607 30.651 37.3822 30.628 37.3069C30.6084 37.1612 30.5783 37.017 30.538 36.8756C30.4269 36.4539 30.2246 36.0616 29.9453 35.7266C29.6661 35.3916 29.3167 35.122 28.9218 34.9369C28.4614 34.7086 27.9375 34.6425 27.4349 34.7494C27.6125 34.0991 27.8266 33.4593 28.0761 32.8331L28.1849 32.5387C28.3086 32.2069 28.4624 31.8637 28.6255 31.5C29.5086 29.5369 30.7199 26.8462 29.4055 20.7712C29.3223 20.2545 29.1342 19.7603 28.8527 19.319C28.5711 18.8778 28.2022 18.4988 27.7687 18.2056C27.3351 17.9124 26.846 17.7111 26.3317 17.6142C25.8173 17.5172 25.2886 17.5266 24.778 17.6419C23.543 17.8021 22.3456 18.1771 21.2399 18.75C21.0936 18.825 20.9586 18.8962 20.8349 18.9656C20.9767 15.5587 22.2411 12.2942 24.4311 9.68062C25.3108 8.81978 26.3606 8.15226 27.5134 7.72088C28.6661 7.2895 29.8962 7.10378 31.1249 7.17563C33.2006 7.19365 35.2471 7.66692 37.12 8.56205C38.9929 9.45718 40.6465 10.7524 41.9643 12.3562C43.2503 13.858 44.2551 15.5793 44.9305 17.4375C42.1874 17.1581 40.3218 17.7 39.3768 19.0519C37.3143 21.9919 40.5018 27.6994 42.0318 30.4425C42.313 30.945 42.5549 31.38 42.6299 31.5675C43.0339 32.5107 43.5782 33.3875 44.2443 34.1681C44.3886 34.3556 44.5293 34.5225 44.6343 34.6762C43.8036 34.9162 42.3111 35.4694 42.448 38.2387C42.3393 39.6262 41.5593 46.1231 41.1618 48.42C40.6386 51.4519 39.523 52.5825 36.3843 53.2556L36.3861 53.25ZM49.9649 37.71C48.8106 38.1679 47.5855 38.4217 46.3443 38.46C45.5184 38.5816 44.6751 38.4733 43.9068 38.1469C43.8224 36.4237 44.4693 36.2437 45.1443 36.0525C45.2511 36.0225 45.3543 35.9925 45.4555 35.9587C45.5217 36.0122 45.5906 36.0622 45.6618 36.1087C46.8599 36.9 48.9993 36.9844 52.018 36.3619H52.0518C51.4278 36.9167 50.722 37.3721 49.9593 37.7119L49.9649 37.71Z" fill="white"/>
</svg>
