<svg width="48" height="26" viewBox="0 0 48 26" fill="none" xmlns="http://www.w3.org/2000/svg">
<path d="M24.05 0.25C37.2 0.25 47.55 5.85 47.55 13C47.55 20.1 37.2 25.7 24.05 25.7C10.85 25.7 0.5 20.1 0.5 13C0.5 5.85 10.85 0.25 24.05 0.25ZM21.6 4.15L19.15 15.9H21.7L22.95 10.05H25C25.65 10.05 26.1 10.15 26.3 10.35C26.5 10.6 26.55 11 26.4 11.6L25.5 15.9H28.1L29.1 11.25C29.35 10.1 29.15 9.3 28.6 8.8C28.05 8.3 27.1 8.1 25.65 8.1H23.35L24.15 4.15H21.6ZM10.3 8.1L8.3 18.85H10.9L11.45 15.9H13.05C16.4 15.9 18.25 15.15 18.95 12.25C19.55 9.75 18 8.1 15.55 8.1H10.3ZM30.9 8.1L28.9 18.85H31.5L32 15.9H33.65C37 15.9 38.85 15.15 39.55 12.25C40.1 9.75 38.6 8.1 36.1 8.1H30.9ZM12.55 10.05H14.55C16.25 10.05 16.6 10.8 16.5 11.65C16.25 13.8 14.9 13.95 13.45 13.95H11.8L12.55 10.05ZM33.1 10.05H35.15C36.8 10.05 37.15 10.8 37.1 11.65C36.85 13.8 35.5 13.95 34.05 13.95H32.4L33.1 10.05Z" fill="#6082BB"/>
</svg>
