<svg width="36" height="40" viewBox="0 0 36 40" fill="none" xmlns="http://www.w3.org/2000/svg">
<g clip-path="url(#clip0_250_1092)">
<mask id="mask0_250_1092" style="mask-type:luminance" maskUnits="userSpaceOnUse" x="4" y="15" width="32" height="25">
<path d="M35.7143 15.1548V17.4842C35.7025 18.245 35.6937 19.0793 35.6937 19.9987C35.6937 20.5686 35.6967 21.1032 35.7025 21.6085L30.1203 24.8309L28.1607 25.9619L26.0306 27.1927L21.9321 29.5574L20.0048 30.6677L17.8689 31.9015L15.9092 33.0324L17.8689 34.1634L21.0037 32.3539C21.6325 31.9749 22.2641 31.596 22.8958 31.2229L22.9046 31.2406L26.4302 29.2049C26.6182 29.1021 26.8063 28.9963 26.9943 28.8935L30.1203 27.0869V27.084L35.7172 23.8527V28.0739C35.6408 28.8582 35.4851 29.4575 35.1913 29.9745C34.8652 30.5473 34.3716 31.0202 33.6312 31.5314L29.7443 33.7756C28.8805 34.2515 27.8992 34.7979 26.7769 35.4441C25.6546 36.0904 24.6909 36.6691 23.8477 37.1773L19.9607 39.4215C19.1675 39.7975 18.5241 39.9914 17.8836 39.9943C17.2519 40.0002 16.6232 39.8239 15.8564 39.4685L11.4435 36.9217C10.7031 36.4781 9.87754 35.9846 8.94032 35.4441C8.0031 34.9036 7.16283 34.4307 6.40777 34.0136L4.72723 33.0442L8.64946 30.7794L10.3417 29.8041L12.3102 28.6673L17.8454 25.4713L18.6151 25.0277L21.8293 23.1712L22.5991 22.7277L28.1372 19.5317L30.1056 18.3949L31.0282 17.8632L35.7143 15.1548Z" fill="white"/>
</mask>
<g mask="url(#mask0_250_1092)">
<path d="M35.7143 15.1548H4.7243V40.0002H35.7143V15.1548Z" fill="#9E9EAC"/>
</g>
<mask id="mask1_250_1092" style="mask-type:luminance" maskUnits="userSpaceOnUse" x="0" y="0" width="36" height="32">
<path d="M25.4137 3.76885L26.774 4.55316L33.9397 8.68917C34.495 9.10336 34.8858 9.50873 35.1619 9.9758C35.4734 10.5045 35.635 11.1155 35.7143 11.9204V12.9162L33.6019 14.1353L30.1174 16.1475L28.1578 17.2784L22.5785 20.5038L15.9328 24.3402L10.3506 27.5626L8.38504 28.6965L5.51756 30.3533L2.7911 31.9278L1.9949 31.4695C1.3221 30.9966 0.860833 30.5501 0.552343 30.0213C0.240916 29.4926 0.0793259 28.8816 0 28.0767V27.0779L2.72058 25.5064L5.59688 23.8467L7.55653 22.7158L13.1358 19.4963L19.7815 15.6599L25.3402 12.4521L27.2999 11.3212L25.3755 10.2108L23.4158 11.3417L7.57709 20.4833L5.60864 21.6201L4.45694 22.2869L0 24.8572V22.4984C0.011752 21.7434 0.020566 20.9151 0.020566 20.0015C0.020566 19.0879 0.011752 18.2596 0 17.5046V11.9234C0.0763879 11.142 0.232102 10.5427 0.525901 10.0257C0.802073 9.53811 1.20164 9.12098 1.77455 8.69211L8.94032 4.5561L16.1061 0.420093C16.7436 0.146905 17.2872 0.00884278 17.8336 0.00590527C18.3948 0.00296777 18.956 0.14103 19.6111 0.420093L23.454 2.63791L17.8571 5.86916L10.1155 10.3371L5.59688 12.9456V15.2104L7.55653 14.0795L17.8571 8.13398L19.8168 7.00304L24.212 4.46504L25.4137 3.76885Z" fill="white"/>
</mask>
<g mask="url(#mask1_250_1092)">
<path d="M35.7143 0H0V31.9277H35.7143V0Z" fill="#9E9EAC"/>
</g>
<mask id="mask2_250_1092" style="mask-type:luminance" maskUnits="userSpaceOnUse" x="0" y="0" width="36" height="22">
<path d="M5.18851 12.7105L22.6373 2.6378L19.429 0.784235C18.9207 0.569798 18.3919 0.408235 17.8366 0.411172C17.296 0.41411 16.7818 0.575673 16.2883 0.784235L2.00079 9.03275C1.56009 9.36469 1.15758 9.74069 0.881409 10.2254L5.18851 12.7105ZM25.4137 4.23874L7.96492 14.3144L12.7068 17.0521L25.3755 9.73775L28.1137 11.3181L15.4451 18.6325L20.2252 21.3938L35.3059 12.687V11.9468C35.2442 11.3358 35.1267 10.7218 34.8094 10.1872C34.5362 9.72306 34.1395 9.35587 33.7135 9.03275L25.4137 4.23874Z" fill="white"/>
</mask>
<g mask="url(#mask2_250_1092)">
<path d="M35.3089 0.408203H0.881409V21.3937H35.3089V0.408203Z" fill="#9E9EAC"/>
</g>
<mask id="mask3_250_1092" style="mask-type:luminance" maskUnits="userSpaceOnUse" x="22" y="15" width="14" height="15">
<path d="M34.8123 29.8125C34.8211 29.8008 34.827 29.7861 34.8329 29.7743C35.1296 29.2485 35.2471 28.6493 35.3059 28.0559V24.5573L30.5258 27.3186V27.3333L30.5199 27.3362L34.8123 29.8125ZM35.3088 15.8594L22.9751 22.9799L27.7464 25.7323L35.2941 21.376C35.2912 20.9178 35.2883 20.4595 35.2883 20.0013C35.2883 19.1611 35.2971 18.321 35.3088 17.4868V15.8594Z" fill="white"/>
</mask>
<g mask="url(#mask3_250_1092)">
<path d="M35.3059 15.8594H22.9751V29.8096H35.3059V15.8594Z" fill="#9E9EAC"/>
</g>
</g>
<defs>
<clipPath id="clip0_250_1092">
<rect width="35.7143" height="40" fill="white"/>
</clipPath>
</defs>
</svg>
