<svg width="53" height="47" viewBox="0 0 53 47" fill="none" xmlns="http://www.w3.org/2000/svg">
<path d="M44.9736 13.9997L36.7964 13.9999C36.7792 14.0001 36.762 13.9999 36.7447 13.9999C33.572 13.9999 31 11.5375 31 8.49997C31 5.46242 33.572 3 36.7447 3C39.4725 3 41.7562 4.82023 42.3431 7.26124H42.4619C43.1535 6.70697 44.0446 6.37331 45.017 6.37331C47.2168 6.37331 49 8.08059 49 10.1866C49 12.2927 47.2168 13.9999 45.017 13.9999C45.0025 13.9999 44.988 13.9999 44.9736 13.9997Z" fill="#9747FF"/>
<path d="M29.6182 39.9996V40H14.6268V39.9996C14.5952 39.9999 14.5636 40 14.5319 40C8.7153 40 4 35.5228 4 30C4 24.4772 8.7153 20 14.5319 20C19.5329 20 23.7197 23.3095 24.7956 27.7477H25.0135C26.2814 26.74 27.915 26.1333 29.6979 26.1333C33.7307 26.1333 37 29.2375 37 33.0667C37 36.8958 33.7307 40 29.6979 40C29.6713 40 29.6447 39.9999 29.6182 39.9996Z" fill="#9747FF"/>
<path d="M16 35.7458H15.5V44.1135C15.5 45.0864 16.4824 45.804 17.4055 45.3762L22.0603 43.2189C22.7016 42.9217 23.3948 42.7685 24.0951 42.7685H33.9049C34.6052 42.7685 35.2984 42.9217 35.9397 43.2189L40.5945 45.3762C41.5176 45.804 42.5 45.0864 42.5 44.1135V35.7458C42.5 35.7263 42.4995 34.5003 42.0571 33.1688C41.6167 31.8433 40.6915 30.2896 38.7698 29.8621C38.443 29.7894 38.2126 29.5159 38.2096 29.2368C38.0325 12.6038 33.5141 4.65572 30.9704 1.49211C30.4511 0.846186 29.7372 0.500002 29 0.5C28.2628 0.499998 27.549 0.846179 27.0296 1.4921C24.4859 4.65571 19.9675 12.6037 19.7904 29.2368C19.7874 29.5159 19.557 29.7894 19.2302 29.8621C17.3085 30.2896 16.3833 31.8433 15.9429 33.1688C15.7203 33.8385 15.6103 34.4788 15.5555 34.9493C15.528 35.1854 15.5142 35.381 15.5072 35.5191C15.5037 35.5882 15.5019 35.643 15.501 35.6814C15.5005 35.7007 15.5003 35.7158 15.5001 35.7266L15.5 35.7395L15.5 35.7435L15.5 35.7449L15.5 35.7454C15.5 35.7456 15.5 35.7458 16 35.7458Z" fill="url(#paint0_linear_248_1022)" stroke="url(#paint1_linear_248_1022)"/>
<g filter="url(#filter0_d_248_1022)">
<ellipse cx="2.5" cy="3.5" rx="2.5" ry="3.5" transform="matrix(1 0 0 -1 26 23)" fill="url(#paint2_linear_248_1022)"/>
<path d="M30.5 19.5C30.5 18.6257 30.2461 17.855 29.8609 17.3157C29.475 16.7755 28.987 16.5 28.5 16.5C28.013 16.5 27.525 16.7755 27.1391 17.3157C26.7539 17.855 26.5 18.6257 26.5 19.5C26.5 20.3743 26.7539 21.145 27.1391 21.6843C27.525 22.2245 28.013 22.5 28.5 22.5C28.987 22.5 29.475 22.2245 29.8609 21.6843C30.2461 21.145 30.5 20.3743 30.5 19.5Z" stroke="white" stroke-opacity="0.14"/>
</g>
<defs>
<filter id="filter0_d_248_1022" x="20" y="16" width="17" height="19" filterUnits="userSpaceOnUse" color-interpolation-filters="sRGB">
<feFlood flood-opacity="0" result="BackgroundImageFix"/>
<feColorMatrix in="SourceAlpha" type="matrix" values="0 0 0 0 0 0 0 0 0 0 0 0 0 0 0 0 0 0 127 0" result="hardAlpha"/>
<feOffset dy="6"/>
<feGaussianBlur stdDeviation="3"/>
<feComposite in2="hardAlpha" operator="out"/>
<feColorMatrix type="matrix" values="0 0 0 0 0.635294 0 0 0 0 0.294118 0 0 0 0 0.894118 0 0 0 0.27 0"/>
<feBlend mode="normal" in2="BackgroundImageFix" result="effect1_dropShadow_248_1022"/>
<feBlend mode="normal" in="SourceGraphic" in2="effect1_dropShadow_248_1022" result="shape"/>
</filter>
<linearGradient id="paint0_linear_248_1022" x1="19.0621" y1="4.81935" x2="41.3346" y2="36.263" gradientUnits="userSpaceOnUse">
<stop stop-color="#9747FF"/>
<stop offset="0.989661" stop-color="#9747FF" stop-opacity="0.33"/>
</linearGradient>
<linearGradient id="paint1_linear_248_1022" x1="29" y1="1" x2="29" y2="45" gradientUnits="userSpaceOnUse">
<stop stop-color="white"/>
<stop offset="1" stop-color="#E5E5E5" stop-opacity="0"/>
</linearGradient>
<linearGradient id="paint2_linear_248_1022" x1="-0.128892" y1="5.06537" x2="5.18988" y2="5.04609" gradientUnits="userSpaceOnUse">
<stop stop-color="#E9C7FC"/>
<stop offset="1" stop-color="#FEFCFF"/>
</linearGradient>
</defs>
</svg>
