<svg width="53" height="46" viewBox="0 0 53 46" fill="none" xmlns="http://www.w3.org/2000/svg">
<g filter="url(#filter0_b_738_157)">
<path d="M24.9193 1.80541C25.7828 0.731526 27.2173 0.73153 28.0808 1.80542C30.5432 4.86804 35.0335 12.7024 35.2097 29.2421C35.2155 29.7923 35.6478 30.236 36.1612 30.3502C39.5 31.0928 39.5 35.7457 39.5 35.7458C39.5 35.7458 39.5 35.7458 39.5 35.7458V44.1135C39.5 44.7544 38.8668 45.183 38.3048 44.9226L33.6499 42.7653C32.9432 42.4377 32.1784 42.2685 31.4049 42.2685H21.5951C20.8216 42.2685 20.0568 42.4377 19.3501 42.7653L14.6952 44.9226C14.1332 45.183 13.5 44.7544 13.5 44.1135V35.7458C13.5 35.7458 13.5 31.0928 16.8388 30.3502C17.3522 30.236 17.7845 29.7923 17.7903 29.2421C17.9665 12.7024 22.4568 4.86803 24.9193 1.80541Z" fill="url(#paint0_linear_738_157)"/>
<path d="M25.309 2.11872C25.6531 1.69076 26.0882 1.5 26.5 1.5C26.9118 1.5 27.347 1.69076 27.6911 2.11873C30.0724 5.08036 34.5346 12.8011 34.7097 29.2474C34.7184 30.0688 35.3527 30.6825 36.0527 30.8382C37.4697 31.1534 38.2139 32.2975 38.6082 33.4841C38.997 34.6545 39 35.746 39 35.746V44.1135C39 44.4225 38.716 44.5621 38.515 44.4689L33.8601 42.3116C33.088 41.9538 32.2515 41.7685 31.4049 41.7685H21.5951C20.7485 41.7685 19.912 41.9538 19.1399 42.3116L14.485 44.4689C14.284 44.5621 14 44.4225 14 44.1135L14 35.7463L14 35.7461L14 35.7458L14 35.7452L14.0001 35.7382L14.0007 35.7052C14.0014 35.6752 14.0029 35.6293 14.0059 35.5697C14.0119 35.4504 14.0241 35.2767 14.0488 35.065C14.0983 34.6398 14.197 34.0705 14.3918 33.4841C14.7861 32.2975 15.5303 31.1534 16.9473 30.8382C17.6473 30.6825 18.2816 30.0688 18.2903 29.2474C18.4654 12.8011 22.9277 5.08035 25.309 2.11872Z" stroke="url(#paint1_linear_738_157)"/>
</g>
<ellipse cx="2.5" cy="3.5" rx="2.5" ry="3.5" transform="matrix(1 0 0 -1 24 23)" fill="white"/>
<path d="M28.5 19.5C28.5 18.6257 28.2461 17.855 27.8609 17.3157C27.475 16.7755 26.987 16.5 26.5 16.5C26.013 16.5 25.525 16.7755 25.1391 17.3157C24.7539 17.855 24.5 18.6257 24.5 19.5C24.5 20.3743 24.7539 21.145 25.1391 21.6843C25.525 22.2245 26.013 22.5 26.5 22.5C26.987 22.5 27.475 22.2245 27.8609 21.6843C28.2461 21.145 28.5 20.3743 28.5 19.5Z" stroke="white" stroke-opacity="0.14"/>
<defs>
<filter id="filter0_b_738_157" x="-10.5" y="-23" width="74" height="92" filterUnits="userSpaceOnUse" color-interpolation-filters="sRGB">
<feFlood flood-opacity="0" result="BackgroundImageFix"/>
<feGaussianBlur in="BackgroundImageFix" stdDeviation="12"/>
<feComposite in2="SourceAlpha" operator="in" result="effect1_backgroundBlur_738_157"/>
<feBlend mode="normal" in="SourceGraphic" in2="effect1_backgroundBlur_738_157" result="shape"/>
</filter>
<linearGradient id="paint0_linear_738_157" x1="16.5621" y1="4.81935" x2="38.8346" y2="36.263" gradientUnits="userSpaceOnUse">
<stop stop-color="white"/>
<stop offset="0.989661" stop-color="white" stop-opacity="0.33"/>
</linearGradient>
<linearGradient id="paint1_linear_738_157" x1="26.5" y1="1" x2="26.5" y2="45" gradientUnits="userSpaceOnUse">
<stop stop-color="white"/>
<stop offset="1" stop-color="#E5E5E5" stop-opacity="0"/>
</linearGradient>
</defs>
</svg>
