<svg width="12" height="12" viewBox="0 0 12 12" fill="none" xmlns="http://www.w3.org/2000/svg">
<path d="M5.74988 10.8749C2.92488 10.8749 0.624878 8.57488 0.624878 5.74988C0.624878 2.92488 2.92488 0.624878 5.74988 0.624878C8.57488 0.624878 10.8749 2.92488 10.8749 5.74988C10.8749 8.57488 8.57488 10.8749 5.74988 10.8749ZM5.74988 1.37488C3.33488 1.37488 1.37488 3.33988 1.37488 5.74988C1.37488 8.15988 3.33488 10.1249 5.74988 10.1249C8.16488 10.1249 10.1249 8.15988 10.1249 5.74988C10.1249 3.33988 8.16488 1.37488 5.74988 1.37488Z" fill="#9E9EAC"/>
<path d="M11 11.3748C10.905 11.3748 10.81 11.3398 10.735 11.2648L9.735 10.2648C9.59 10.1198 9.59 9.87985 9.735 9.73485C9.88 9.58985 10.12 9.58985 10.265 9.73485L11.265 10.7348C11.41 10.8798 11.41 11.1198 11.265 11.2648C11.19 11.3398 11.095 11.3748 11 11.3748Z" fill="#9E9EAC"/>
</svg>
