<svg width="41" height="40" viewBox="0 0 41 40" fill="none" xmlns="http://www.w3.org/2000/svg">
<path d="M35.3346 39.9999C33.8681 39.9999 32.4715 39.4482 31.459 38.4137C30.4115 37.3793 29.8528 36.0344 29.8528 34.5862C29.8528 33.1379 30.4115 31.7931 31.459 30.7586C32.5064 29.7241 33.8681 29.1724 35.3346 29.1724C36.801 29.1724 38.1628 29.7241 39.2102 30.7586C41.3401 32.862 41.3401 36.3103 39.2102 38.4137C38.1628 39.4482 36.801 39.9999 35.3346 39.9999Z" fill="#9E9EAC"/>
<path d="M5.48175 11.1035C4.01529 11.1035 2.61867 10.5517 1.60612 9.51726C0.558649 8.48278 0 7.13795 0 5.68967C0 4.2414 0.558649 2.89657 1.60612 1.86209C2.65358 0.827603 4.01529 0.275879 5.48175 0.275879C6.9482 0.275879 8.30991 0.827603 9.35738 1.86209C10.4048 2.89657 10.9635 4.2414 10.9635 5.68967C10.9635 7.13795 10.4048 8.51726 9.35738 9.51726C8.34483 10.5173 6.9482 11.1035 5.48175 11.1035Z" fill="#9E9EAC"/>
<path d="M35.0902 10.9311C33.6237 10.9311 32.2271 10.3794 31.2145 9.34489C29.0847 7.24145 29.0847 3.79317 31.2145 1.68972C32.262 0.65524 33.6237 0.103516 35.0902 0.103516C36.5566 0.103516 37.9183 0.65524 38.9658 1.68972C41.0957 3.79317 41.0957 7.24145 38.9658 9.34489C37.9183 10.3794 36.5566 10.9311 35.0902 10.9311Z" fill="#9E9EAC"/>
<path d="M5.6214 40.0002C4.15494 40.0002 2.75832 39.4485 1.74577 38.414C0.698298 37.3795 0.139648 36.0347 0.139648 34.5864C0.139648 33.1382 0.698298 31.7933 1.74577 30.7588C1.95526 30.5519 2.19967 30.345 2.51391 30.1382C2.61866 30.0692 2.7234 30.0002 2.79323 29.9657C3.00273 29.8623 3.21222 29.7588 3.3868 29.6554C3.49155 29.6209 3.59629 29.5519 3.70104 29.5175C3.91053 29.4485 4.12003 29.3795 4.36444 29.3106C4.39935 29.3106 4.46918 29.2761 4.5041 29.2761C4.53901 29.2761 4.57393 29.2761 4.57393 29.2416L5.79597 29.1726C5.93564 29.1726 6.11021 29.2071 6.28479 29.2071H6.35462C6.38954 29.2071 6.45937 29.2071 6.49429 29.2071H6.5292H6.59903H6.63395C6.7387 29.2071 6.80853 29.2071 6.91327 29.2071C9.00821 29.2071 11.1031 28.3106 12.6045 26.7933C14.1059 25.2416 14.9439 23.1726 14.9089 21.1037V21.0347V20.9657C14.9089 20.8968 14.9089 20.8623 14.874 20.7933C14.874 20.7244 14.874 20.6554 14.8391 20.5864V20.4485C14.8391 20.345 14.8042 20.2416 14.8042 20.1382L14.9089 18.9313C14.9089 18.8968 14.9089 18.8623 14.9439 18.8278L14.9788 18.7588C15.0486 18.5175 15.0835 18.3106 15.1883 18.0692C15.2232 17.9313 15.293 17.8623 15.3279 17.7588C15.4327 17.5519 15.5374 17.345 15.6422 17.1726C15.6771 17.1037 15.7469 17.0002 15.8167 16.9313C16.0262 16.6209 16.2357 16.3795 16.4452 16.1726C17.4927 15.1382 18.8544 14.5864 20.3209 14.5864C21.7873 14.5864 23.1839 15.1382 24.1965 16.1726C26.3263 18.2761 26.3263 21.7244 24.1965 23.8278C23.987 24.0347 23.7426 24.2416 23.4283 24.4485C23.3236 24.5175 23.2538 24.5519 23.149 24.6209C22.9395 24.7244 22.7649 24.8278 22.5555 24.9313C22.4507 24.9657 22.346 25.0347 22.2412 25.0692C22.0317 25.1381 21.8222 25.2071 21.5778 25.2761L21.4382 25.3106C21.4032 25.3106 21.3683 25.345 21.3334 25.345L20.1114 25.4485C19.9717 25.4485 19.832 25.414 19.6575 25.414H19.5527C19.5178 25.414 19.448 25.414 19.4131 25.414H19.3781H19.3083H19.2734C19.1686 25.414 19.0988 25.414 18.9941 25.414C16.8991 25.414 14.8042 26.3106 13.3028 27.8278C11.8015 29.3795 10.9635 31.4485 10.9984 33.5175V33.5864V33.6554C10.9984 33.7244 10.9984 33.7588 11.0333 33.8278C11.0333 33.8968 11.0333 33.9657 11.0682 34.0347C11.0682 34.0692 11.0682 34.1381 11.1031 34.2071C11.1031 34.2761 11.1381 34.3795 11.1381 34.4485V34.483L11.0333 35.6554C11.0333 35.6899 10.9984 35.8278 10.9635 35.8623C10.8937 36.1037 10.8238 36.345 10.754 36.5175C10.7191 36.6209 10.6842 36.7244 10.6143 36.8278C10.5096 37.0347 10.4048 37.2416 10.3001 37.4485C10.2652 37.5175 10.1953 37.6209 10.1255 37.7244C9.91601 38.0002 9.70652 38.2761 9.49703 38.483C8.48448 39.4485 7.08785 40.0002 5.6214 40.0002Z" fill="#9E9EAC"/>
<path d="M20.4605 39.9999C18.9941 39.9999 17.5975 39.4482 16.5849 38.4137C15.5374 37.3792 14.9788 36.0344 14.9788 34.5861C14.9788 33.1378 15.5374 31.793 16.5849 30.7585C16.7944 30.5516 17.0388 30.3447 17.3531 30.1378C17.4229 30.0689 17.5276 30.0344 17.5975 29.9654C17.807 29.862 17.9815 29.7585 18.191 29.6551C18.2958 29.6206 18.4005 29.5516 18.5053 29.5172C18.7148 29.4482 18.9243 29.3792 19.1687 29.3103L19.3782 29.2413L20.6351 29.1378C20.7748 29.1378 20.9494 29.1723 21.089 29.1723H21.1938C21.2636 29.1723 21.2985 29.1723 21.3683 29.1723C21.4033 29.1723 21.4033 29.1723 21.4382 29.1723H21.4731H21.508C21.6128 29.1723 21.6826 29.1723 21.7873 29.1723C23.8823 29.1723 25.9772 28.2758 27.4786 26.7585C28.9799 25.2068 29.8179 23.1378 29.783 21.0689V20.8275L29.7481 20.793V20.7585C29.7481 20.6896 29.7481 20.6551 29.7481 20.5861L29.7132 20.4137C29.7132 20.3103 29.6783 20.2068 29.6783 20.1378L29.7481 18.9654C29.7481 18.9309 29.783 18.793 29.8179 18.7585C29.8877 18.4827 29.9576 18.2758 30.0274 18.1034C30.0623 17.9999 30.0972 17.8965 30.1671 17.793C30.2718 17.6206 30.3417 17.4137 30.4813 17.2068L30.5162 17.1723C30.5511 17.1034 30.5861 17.0344 30.6559 16.9654C30.8654 16.6551 31.0749 16.4137 31.2844 16.2068C32.3318 15.1723 33.6935 14.6206 35.16 14.6206C36.6265 14.6206 37.9882 15.1723 39.0356 16.2068C41.1655 18.3103 41.1655 21.7585 39.0356 23.862C38.8261 24.0689 38.5817 24.2758 38.2675 24.4827C38.1977 24.5172 38.1627 24.5516 38.0929 24.5861L37.9882 24.6551C37.8136 24.7585 37.6041 24.862 37.3946 24.9654C37.2899 24.9999 37.1851 25.0689 37.0804 25.1034C36.8709 25.1723 36.6614 25.2413 36.417 25.3103C36.3471 25.3103 36.3122 25.3447 36.2773 25.3447C36.2424 25.3447 36.2075 25.3447 36.2075 25.3792L34.9854 25.4482C34.8108 25.4482 34.6014 25.4137 34.4268 25.3792C34.3569 25.3792 34.322 25.3792 34.2522 25.3792C34.2173 25.3792 34.2173 25.3792 34.1824 25.3792H34.0776C33.9729 25.3792 33.903 25.3792 33.7983 25.3792C31.7034 25.3792 29.6084 26.2758 28.1071 27.793C26.6057 29.3447 25.7677 31.4137 25.8375 33.4827V33.5516V33.6206C25.8375 33.6896 25.8375 33.7585 25.8725 33.793C25.8725 33.862 25.8725 33.9309 25.8725 33.9654C25.8725 33.9999 25.8725 34.0689 25.9074 34.1378C25.9074 34.2413 25.9423 34.3103 25.9423 34.4137L25.8375 35.6206C25.8375 35.6551 25.7677 35.793 25.7677 35.793C25.6979 36.0344 25.628 36.2758 25.5582 36.4827C25.5233 36.5861 25.4884 36.6896 25.4186 36.7585V36.793C25.3138 36.9999 25.2091 37.1723 25.1043 37.3792C25.0345 37.4827 24.9996 37.5516 24.9297 37.6551C24.7202 37.9654 24.5107 38.2068 24.3013 38.4137C23.2887 39.4482 21.927 39.9999 20.4605 39.9999Z" fill="#9E9EAC"/>
<path d="M5.6214 25.3793C4.15494 25.3793 2.79323 24.7931 1.74577 23.7931C0.698298 22.7586 0.139648 21.4138 0.139648 19.9655C0.139648 18.5172 0.698298 17.1724 1.74577 16.1379C1.95526 15.931 2.19967 15.7241 2.51391 15.5172C2.58374 15.4483 2.68849 15.4138 2.79323 15.3448C2.96781 15.2414 3.1773 15.1379 3.3868 15.0345C3.49155 15 3.59629 14.931 3.70104 14.8966C3.91053 14.8276 4.12003 14.7586 4.36444 14.7241L4.5041 14.6897C4.53901 14.6897 4.53901 14.6897 4.57393 14.6552L5.83089 14.5517C6.00547 14.5517 6.18005 14.5862 6.35462 14.6207H6.38954C6.45937 14.6207 6.49429 14.6207 6.56412 14.6207C6.59903 14.6207 6.59903 14.6207 6.63395 14.6207H6.70378H6.73869C6.84344 14.6207 6.91327 14.6207 7.01802 14.6207C9.11296 14.6207 11.2079 13.7241 12.7093 12.2069C14.2106 10.6552 15.0486 8.58621 14.9788 6.51724V6.44828V6.37931C14.9788 6.31034 14.9788 6.24138 14.9439 6.17241C14.9439 6.10345 14.9439 6.06896 14.9439 6L14.9089 5.86207C14.9089 5.75862 14.874 5.65517 14.874 5.55172L14.9439 4.41379V4.37931V4.34483C14.9439 4.31034 14.9788 4.17241 14.9788 4.17241C15.0486 3.89655 15.1184 3.65517 15.1883 3.48276C15.2232 3.37931 15.293 3.27586 15.3279 3.17241C15.4327 2.96552 15.5374 2.7931 15.6422 2.58621L15.6771 2.55172C15.712 2.51724 15.7818 2.41379 15.8167 2.34483C16.0262 2.03448 16.2357 1.7931 16.4452 1.58621C17.4927 0.551724 18.8544 0 20.3209 0C21.7873 0 23.1839 0.551724 24.1965 1.58621C26.3263 3.68965 26.3263 7.13793 24.1965 9.24138C23.987 9.44827 23.7426 9.65517 23.4283 9.86207C23.3585 9.93103 23.2887 9.96552 23.1839 10L23.149 10.0345C22.9395 10.1379 22.7649 10.2414 22.5555 10.3448C22.4507 10.3793 22.346 10.4483 22.2412 10.4828C22.0317 10.5517 21.8222 10.6207 21.5778 10.6897C21.5429 10.6897 21.4731 10.7241 21.4382 10.7241C21.4032 10.7241 21.3683 10.7241 21.3683 10.7586L20.1463 10.8276C20.0066 10.8276 19.832 10.7931 19.6575 10.7931H19.5876C19.5178 10.7931 19.4829 10.7931 19.4131 10.7931C19.3781 10.7931 19.3781 10.7931 19.3432 10.7931H19.3083H19.2385C19.1337 10.7931 19.0639 10.7931 18.9592 10.7931C16.8642 10.7931 14.7693 11.6897 13.2679 13.2069C11.7665 14.7586 10.9286 16.8276 10.9635 18.8965V18.9655V19.0345C10.9635 19.1034 10.9635 19.1724 10.9984 19.2069C10.9984 19.2759 10.9984 19.3448 10.9984 19.4138C10.9984 19.4483 10.9984 19.5172 11.0333 19.5862C11.0333 19.6897 11.0682 19.7586 11.0682 19.8621L10.9635 21.0345C10.9635 21.069 10.9635 21.1034 10.9286 21.1379L10.8937 21.2414C10.8238 21.5172 10.754 21.7241 10.6842 21.931C10.6492 22.0345 10.5794 22.1379 10.5445 22.2414C10.4397 22.4483 10.335 22.6207 10.2303 22.8276C10.1604 22.931 10.1255 23 10.0557 23.1034C9.84618 23.4138 9.63669 23.6552 9.4272 23.8621C8.48447 24.7931 7.08785 25.3793 5.6214 25.3793Z" fill="#9E9EAC"/>
</svg>
