<svg width="22" height="23" viewBox="0 0 22 23" fill="none" xmlns="http://www.w3.org/2000/svg">
<path fill-rule="evenodd" clip-rule="evenodd" d="M0.197703 7.07455L0.197643 7.07471C0.273826 7.99733 0.549867 8.88888 1.00276 9.68903C0.932296 10.1696 0.896687 10.6556 0.896687 11.1434C0.896687 12.4656 1.15825 13.7747 1.66645 14.9962C2.17465 16.2177 2.91953 17.3275 3.85855 18.2624C4.79758 19.1973 5.91237 19.9389 7.13927 20.4448C8.36617 20.9508 9.68115 21.2112 11.0091 21.2112C11.4129 21.2112 11.8154 21.1871 12.2146 21.1394C12.3918 21.2434 12.5742 21.3391 12.7615 21.426L12.7615 21.4259C12.9616 21.5188 13.1669 21.6015 13.3767 21.6735L13.3795 21.6729C14.0413 21.8992 14.7419 22.0179 15.4549 22.0179C16.2936 22.0179 17.1241 21.8534 17.899 21.5339C18.6739 21.2143 19.378 20.746 19.9711 20.1555C20.5642 19.565 21.0346 18.8641 21.3556 18.0926C21.6766 17.3211 21.8418 16.4943 21.8418 15.6592C21.8418 15.4809 21.8342 15.3029 21.8192 15.1257C21.7451 14.2084 21.4735 13.3209 21.0262 12.5228C21.0896 12.0667 21.1216 11.6059 21.1216 11.1434C21.1216 9.82133 20.86 8.51217 20.3518 7.2907C19.8436 6.06923 19.0987 4.95937 18.1597 4.0245C17.2207 3.08962 16.1059 2.34804 14.879 1.84209C13.6521 1.33614 12.3371 1.07573 11.0091 1.07573C10.6485 1.07573 10.2888 1.09494 9.93159 1.13305C9.75995 1.02646 9.58295 0.927847 9.40111 0.837634L9.40052 0.837727C9.20698 0.741738 9.0082 0.655386 8.80485 0.579152L8.80247 0.579648C8.68263 0.53487 8.56142 0.493667 8.43898 0.456108C8.08612 0.347556 7.72303 0.269335 7.35355 0.223101L7.35224 0.223539C7.09048 0.190916 6.82561 0.174316 6.55901 0.174316C4.86569 0.174316 3.24171 0.844016 2.04435 2.03609C0.846988 3.22816 0.174316 4.84496 0.174316 6.5308C0.174316 6.71301 0.182174 6.89441 0.197703 7.07455ZM7.16915 9.744C7.41593 10.166 7.75694 10.5253 8.1656 10.7939C8.70704 11.1478 9.28261 11.4466 9.88368 11.6859C10.5558 11.9665 11.0772 12.2043 11.448 12.3995C11.7615 12.5535 12.0461 12.7604 12.2892 13.0111C12.4731 13.2061 12.5753 13.464 12.5749 13.7319C12.5828 13.9209 12.5455 14.109 12.4662 14.2807C12.3868 14.4524 12.2677 14.6027 12.1186 14.7192C11.7203 14.9869 11.2438 15.1138 10.765 15.0797C10.4942 15.0825 10.224 15.0546 9.95949 14.9967C9.745 14.9496 9.53518 14.8833 9.33261 14.7986C9.15524 14.7219 8.91299 14.6069 8.60587 14.4535C8.35888 14.3219 8.08395 14.2512 7.80405 14.2474C7.55283 14.2372 7.30728 14.3237 7.11812 14.4892C7.0279 14.5749 6.95739 14.6793 6.91145 14.7949C6.86552 14.9106 6.84526 15.0348 6.85206 15.159C6.84642 15.3946 6.91753 15.6256 7.05471 15.8172C7.21993 16.0264 7.43356 16.1923 7.67721 16.3007C8.63029 16.7133 9.66344 16.9086 10.7015 16.8723C11.457 16.8875 12.2089 16.7651 12.9204 16.5111C13.5108 16.3018 14.0249 15.9206 14.3965 15.4168C14.7614 14.8846 14.9463 14.2499 14.9242 13.6052C14.9384 13.0787 14.8065 12.5586 14.543 12.1024C14.2754 11.6683 13.915 11.2988 13.4875 11.0204C12.9463 10.6716 12.372 10.3768 11.7731 10.1401C11.709 10.1088 11.6428 10.0822 11.5748 10.0607C10.961 9.80735 10.4994 9.60396 10.1898 9.45057C9.91347 9.32116 9.6632 9.14224 9.45143 8.92268C9.27321 8.73578 9.1749 8.48688 9.17735 8.22878C9.16881 8.03219 9.21329 7.83692 9.30612 7.66337C9.39896 7.48982 9.53675 7.34436 9.7051 7.24218C10.104 7.0046 10.5632 6.88727 11.0274 6.90433C11.3835 6.90061 11.7385 6.94469 12.0829 7.03539C12.457 7.14316 12.8231 7.27697 13.1784 7.43586C13.3226 7.50269 13.4795 7.53794 13.6384 7.53925C13.7539 7.54231 13.8688 7.52093 13.9754 7.47651C14.0821 7.43208 14.1781 7.36563 14.2573 7.2815C14.3409 7.1902 14.4057 7.08335 14.448 6.96704C14.4902 6.85072 14.5092 6.72723 14.5036 6.60362C14.5074 6.36567 14.4242 6.13452 14.2697 5.95341C14.0599 5.73328 13.7997 5.56737 13.5116 5.46993C13.1977 5.35482 12.8732 5.27115 12.5428 5.22019C12.0812 5.14455 11.6139 5.10874 11.1462 5.11316C10.4313 5.10893 9.72099 5.22841 9.04687 5.46629C8.42706 5.67531 7.87374 6.04462 7.44323 6.53663C7.02897 7.02658 6.80995 7.6518 6.82801 8.29286C6.81331 8.79799 6.9309 9.2982 7.16915 9.744Z" fill="#9747FF"/>
</svg>
