<svg width="20" height="18" viewBox="0 0 20 18" fill="none" xmlns="http://www.w3.org/2000/svg">
<path fill-rule="evenodd" clip-rule="evenodd" d="M1.3749 7.63524C6.74359 5.29619 10.3236 3.75414 12.1148 3.0091C17.2292 0.881857 18.2919 0.512332 18.9846 0.50013C19.1369 0.497446 19.4776 0.535202 19.6982 0.714243C19.8845 0.865422 19.9358 1.06964 19.9603 1.21298C19.9848 1.35631 20.0154 1.68283 19.9911 1.93796C19.714 4.84999 18.5147 11.9167 17.9046 15.1783C17.6465 16.5583 17.1382 17.0211 16.6461 17.0664C15.5766 17.1648 14.7645 16.3596 13.7287 15.6806C12.1078 14.6181 11.1921 13.9567 9.61879 12.9199C7.80053 11.7217 8.97923 11.0631 10.0155 9.98686C10.2866 9.7052 14.9987 5.4192 15.0899 5.03039C15.1013 4.98177 15.1119 4.80051 15.0042 4.7048C14.8965 4.60909 14.7376 4.64182 14.6229 4.66785C14.4604 4.70474 11.871 6.41621 6.85486 9.80224C6.11988 10.3069 5.45416 10.5528 4.8577 10.54C4.20015 10.5257 2.93528 10.1682 1.99498 9.86251C0.84166 9.48761 -0.074973 9.2894 0.00484519 8.65271C0.0464194 8.32108 0.503103 7.98192 1.3749 7.63524Z" fill="#9E9EAC"/>
</svg>
