<svg width="19" height="17" viewBox="0 0 19 17" fill="none" xmlns="http://www.w3.org/2000/svg">
<path d="M1.12813 7.29157C1.12813 7.29157 9.26601 3.86404 12.0884 2.65712C13.1703 2.17439 16.8394 0.629529 16.8394 0.629529C16.8394 0.629529 18.5329 -0.0462897 18.3917 1.59505C18.3446 2.27094 17.9683 4.6364 17.592 7.19503C17.0275 10.8157 16.416 14.7743 16.416 14.7743C16.416 14.7743 16.3219 15.8847 15.5223 16.0778C14.7226 16.2708 13.4055 15.4019 13.1703 15.2088C12.9821 15.064 9.64231 12.8916 8.41928 11.8295C8.08999 11.5398 7.7137 10.9606 8.46629 10.2847C10.1597 8.69159 12.1824 6.7123 13.4055 5.45714C13.97 4.8778 14.5344 3.5261 12.1824 5.16744C8.84265 7.53297 5.54987 9.75365 5.54987 9.75365C5.54987 9.75365 4.79721 10.2364 3.38604 9.80189C1.9748 9.36747 0.328408 8.78813 0.328408 8.78813C0.328408 8.78813 -0.800479 8.06401 1.12813 7.29157Z" fill="#9747FF"/>
</svg>
