<svg width="54" height="35" viewBox="0 0 54 35" fill="none" xmlns="http://www.w3.org/2000/svg">
<path fill-rule="evenodd" clip-rule="evenodd" d="M0 0V35H54V0H0Z" fill="#2E42A5"/>
<mask id="mask0_628_570" style="mask-type:luminance" maskUnits="userSpaceOnUse" x="0" y="0" width="54" height="35">
<path fill-rule="evenodd" clip-rule="evenodd" d="M0 0V35H54V0H0Z" fill="white"/>
</mask>
<g mask="url(#mask0_628_570)">
<mask id="mask1_628_570" style="mask-type:luminance" maskUnits="userSpaceOnUse" x="0" y="0" width="54" height="35">
<rect width="54" height="35" fill="white"/>
</mask>
<g mask="url(#mask1_628_570)">
<path d="M-6.0127 32.4995L5.87016 36.8425L54.2697 4.72184L60.5377 -1.73199L47.8307 -3.18355L28.0896 10.6582L12.2001 19.9843L-6.0127 32.4995Z" fill="white"/>
<path d="M-4.38599 35.5422L1.66778 38.0625L58.2868 -2.33179H49.7866L-4.38599 35.5422Z" fill="#F50100"/>
<path d="M60.0129 32.4995L48.1301 36.8425L-0.269501 4.72184L-6.53743 -1.73199L6.16957 -3.18355L25.9106 10.6582L41.8001 19.9843L60.0129 32.4995Z" fill="white"/>
<path d="M59.6074 34.6833L53.5537 37.2036L29.4447 19.9087L22.2969 17.9764L-7.1406 -1.70993H1.35958L30.7805 17.5091L38.5954 19.8262L59.6074 34.6833Z" fill="#F50100"/>
<mask id="path-8-inside-1_628_570" fill="white">
<path fill-rule="evenodd" clip-rule="evenodd" d="M33.3752 -2.91675H20.6252V11.6666H-3.32837V23.3333H20.6252V37.9166H33.3752V23.3333H57.4216V11.6666H33.3752V-2.91675Z"/>
</mask>
<path fill-rule="evenodd" clip-rule="evenodd" d="M33.3752 -2.91675H20.6252V11.6666H-3.32837V23.3333H20.6252V37.9166H33.3752V23.3333H57.4216V11.6666H33.3752V-2.91675Z" fill="#F50100"/>
<path d="M20.6252 -2.91675V-4.91675H18.6252V-2.91675H20.6252ZM33.3752 -2.91675H35.3752V-4.91675H33.3752V-2.91675ZM20.6252 11.6666V13.6666H22.6252V11.6666H20.6252ZM-3.32837 11.6666V9.66659H-5.32837V11.6666H-3.32837ZM-3.32837 23.3333H-5.32837V25.3333H-3.32837V23.3333ZM20.6252 23.3333H22.6252V21.3333H20.6252V23.3333ZM20.6252 37.9166H18.6252V39.9166H20.6252V37.9166ZM33.3752 37.9166V39.9166H35.3752V37.9166H33.3752ZM33.3752 23.3333V21.3333H31.3752V23.3333H33.3752ZM57.4216 23.3333V25.3333H59.4216V23.3333H57.4216ZM57.4216 11.6666H59.4216V9.66659H57.4216V11.6666ZM33.3752 11.6666H31.3752V13.6666H33.3752V11.6666ZM20.6252 -0.916748H33.3752V-4.91675H20.6252V-0.916748ZM22.6252 11.6666V-2.91675H18.6252V11.6666H22.6252ZM-3.32837 13.6666H20.6252V9.66659H-3.32837V13.6666ZM-1.32837 23.3333V11.6666H-5.32837V23.3333H-1.32837ZM20.6252 21.3333H-3.32837V25.3333H20.6252V21.3333ZM22.6252 37.9166V23.3333H18.6252V37.9166H22.6252ZM33.3752 35.9166H20.6252V39.9166H33.3752V35.9166ZM31.3752 23.3333V37.9166H35.3752V23.3333H31.3752ZM57.4216 21.3333H33.3752V25.3333H57.4216V21.3333ZM55.4216 11.6666V23.3333H59.4216V11.6666H55.4216ZM33.3752 13.6666H57.4216V9.66659H33.3752V13.6666ZM31.3752 -2.91675V11.6666H35.3752V-2.91675H31.3752Z" fill="white" mask="url(#path-8-inside-1_628_570)"/>
</g>
</g>
</svg>
