<svg width="26" height="28" viewBox="0 0 26 28" fill="none" xmlns="http://www.w3.org/2000/svg">
<path opacity="0.75" d="M0.126236 8.87123L4.30295 16.7548C4.59211 17.2963 5.29894 17.7263 5.87725 17.7263L14.4074 17.7104C14.9857 17.7104 15.2267 17.2804 14.9375 16.7389L10.7608 8.8553C10.4716 8.3138 9.78087 7.88379 9.18649 7.88379H0.656357H0.624228C0.0619785 7.91564 -0.162922 8.34566 0.126236 8.87123ZM16.319 18.0608L18.8411 22.7432C19.0178 23.0617 19.4355 23.3165 19.7889 23.3165L24.8652 23.2688C25.2186 23.2688 25.3472 22.998 25.1865 22.6795L22.6484 17.9971C22.4717 17.6786 22.054 17.4237 21.7166 17.4237L16.6403 17.4715H16.6243C16.2708 17.4875 16.1423 17.7423 16.319 18.0608Z" fill="#9ACA3C"/>
<path d="M16.3351 0.286677L11.2588 6.75282C10.9054 7.19876 10.8732 7.97916 11.1624 8.52066L15.4034 16.3724C15.6925 16.9139 16.2066 16.9935 16.56 16.5476L21.6363 10.0815C21.9737 9.63551 22.0219 8.85512 21.7327 8.31362L17.4917 0.461867C17.3311 0.143337 17.0901 0 16.8331 0C16.6564 0 16.4797 0.0955593 16.3351 0.286677ZM15.1624 18.1402L12.1263 21.9945C11.9174 22.2652 11.8853 22.7271 12.062 23.0456L14.6002 27.728C14.7769 28.0465 15.0821 28.0943 15.2909 27.8235L18.311 23.9693C18.5198 23.6986 18.552 23.2367 18.3753 22.9182L15.8371 18.2358C15.7407 18.0606 15.5961 17.9651 15.4516 17.9651C15.3391 17.9651 15.2427 18.0288 15.1624 18.1402Z" fill="#50AADF"/>
</svg>
