<svg width="54" height="36" viewBox="0 0 54 36" fill="none" xmlns="http://www.w3.org/2000/svg">
<path fill-rule="evenodd" clip-rule="evenodd" d="M0 0H54V36H0V0Z" fill="#F7FCFF"/>
<path fill-rule="evenodd" clip-rule="evenodd" d="M0 22V25H54V22H0Z" fill="#E31D1C"/>
<path fill-rule="evenodd" clip-rule="evenodd" d="M0 27.5V30.5H54V27.5H0Z" fill="#E31D1C"/>
<path fill-rule="evenodd" clip-rule="evenodd" d="M0 11V14H54V11H0Z" fill="#E31D1C"/>
<path fill-rule="evenodd" clip-rule="evenodd" d="M0 33V36H54V33H0Z" fill="#E31D1C"/>
<path fill-rule="evenodd" clip-rule="evenodd" d="M0 16.5V19.5H54V16.5H0Z" fill="#E31D1C"/>
<path fill-rule="evenodd" clip-rule="evenodd" d="M0 0V3H54V0H0Z" fill="#E31D1C"/>
<path fill-rule="evenodd" clip-rule="evenodd" d="M0 5.5V8.5H54V5.5H0Z" fill="#E31D1C"/>
<rect width="33.75" height="19.5" fill="#2E42A5"/>
<path fill-rule="evenodd" clip-rule="evenodd" d="M2.90593 4.40806L1.681 5.17139L2.09455 3.81297L1.00659 2.95211H2.42761L2.90421 1.84351L3.46306 2.95211H4.67445L3.72264 3.81297L4.09112 5.17139L2.90593 4.40806ZM9.65589 4.40806L8.43097 5.17139L8.84452 3.81297L7.75656 2.95211H9.17758L9.65418 1.84351L10.213 2.95211H11.4244L10.4726 3.81297L10.8411 5.17139L9.65589 4.40806ZM15.181 5.17139L16.4059 4.40806L17.5911 5.17139L17.2226 3.81297L18.1744 2.95211H16.963L16.4042 1.84351L15.9276 2.95211H14.5066L15.5945 3.81297L15.181 5.17139ZM23.1559 4.40806L21.931 5.17139L22.3445 3.81297L21.2566 2.95211H22.6776L23.1542 1.84351L23.713 2.95211H24.9244L23.9726 3.81297L24.3411 5.17139L23.1559 4.40806ZM1.681 11.1714L2.90593 10.4081L4.09112 11.1714L3.72264 9.81297L4.67445 8.95211H3.46306L2.90421 7.84351L2.42761 8.95211H1.00659L2.09455 9.81297L1.681 11.1714ZM9.65589 10.4081L8.43097 11.1714L8.84452 9.81297L7.75656 8.95211H9.17758L9.65418 7.84351L10.213 8.95211H11.4244L10.4726 9.81297L10.8411 11.1714L9.65589 10.4081ZM15.181 11.1714L16.4059 10.4081L17.5911 11.1714L17.2226 9.81297L18.1744 8.95211H16.963L16.4042 7.84351L15.9276 8.95211H14.5066L15.5945 9.81297L15.181 11.1714ZM23.1559 10.4081L21.931 11.1714L22.3445 9.81297L21.2566 8.95211H22.6776L23.1542 7.84351L23.713 8.95211H24.9244L23.9726 9.81297L24.3411 11.1714L23.1559 10.4081ZM1.681 17.1714L2.90593 16.4081L4.09112 17.1714L3.72264 15.813L4.67445 14.9521H3.46306L2.90421 13.8435L2.42761 14.9521H1.00659L2.09455 15.813L1.681 17.1714ZM9.65589 16.4081L8.43097 17.1714L8.84452 15.813L7.75656 14.9521H9.17758L9.65418 13.8435L10.213 14.9521H11.4244L10.4726 15.813L10.8411 17.1714L9.65589 16.4081ZM15.181 17.1714L16.4059 16.4081L17.5911 17.1714L17.2226 15.813L18.1744 14.9521H16.963L16.4042 13.8435L15.9276 14.9521H14.5066L15.5945 15.813L15.181 17.1714ZM23.1559 16.4081L21.931 17.1714L22.3445 15.813L21.2566 14.9521H22.6776L23.1542 13.8435L23.713 14.9521H24.9244L23.9726 15.813L24.3411 17.1714L23.1559 16.4081ZM28.681 5.17139L29.9059 4.40806L31.0911 5.17139L30.7226 3.81297L31.6744 2.95211H30.463L29.9042 1.84351L29.4276 2.95211H28.0066L29.0945 3.81297L28.681 5.17139ZM29.9059 10.4081L28.681 11.1714L29.0945 9.81297L28.0066 8.95211H29.4276L29.9042 7.84351L30.463 8.95211H31.6744L30.7226 9.81297L31.0911 11.1714L29.9059 10.4081ZM28.681 17.1714L29.9059 16.4081L31.0911 17.1714L30.7226 15.813L31.6744 14.9521H30.463L29.9042 13.8435L29.4276 14.9521H28.0066L29.0945 15.813L28.681 17.1714ZM6.28089 7.40806L5.05597 8.17139L5.46952 6.81297L4.38156 5.95211H5.80258L6.27918 4.84351L6.83803 5.95211H8.04941L7.0976 6.81297L7.46609 8.17139L6.28089 7.40806ZM11.806 8.17139L13.0309 7.40806L14.2161 8.17139L13.8476 6.81297L14.7994 5.95211H13.588L13.0292 4.84351L12.5526 5.95211H11.1316L12.2195 6.81297L11.806 8.17139ZM19.7809 7.40806L18.556 8.17139L18.9695 6.81297L17.8816 5.95211H19.3026L19.7792 4.84351L20.338 5.95211H21.5494L20.5976 6.81297L20.9661 8.17139L19.7809 7.40806ZM5.05597 14.1714L6.28089 13.4081L7.46609 14.1714L7.0976 12.813L8.04941 11.9521H6.83803L6.27918 10.8435L5.80258 11.9521H4.38156L5.46952 12.813L5.05597 14.1714ZM13.0309 13.4081L11.806 14.1714L12.2195 12.813L11.1316 11.9521H12.5526L13.0292 10.8435L13.588 11.9521H14.7994L13.8476 12.813L14.2161 14.1714L13.0309 13.4081ZM18.556 14.1714L19.7809 13.4081L20.9661 14.1714L20.5976 12.813L21.5494 11.9521H20.338L19.7792 10.8435L19.3026 11.9521H17.8816L18.9695 12.813L18.556 14.1714ZM26.5309 7.40806L25.306 8.17139L25.7195 6.81297L24.6316 5.95211H26.0526L26.5292 4.84351L27.088 5.95211H28.2994L27.3476 6.81297L27.7161 8.17139L26.5309 7.40806ZM25.306 14.1714L26.5309 13.4081L27.7161 14.1714L27.3476 12.813L28.2994 11.9521H27.088L26.5292 10.8435L26.0526 11.9521H24.6316L25.7195 12.813L25.306 14.1714Z" fill="#F7FCFF"/>
</svg>
