<svg width="23" height="26" viewBox="0 0 23 26" fill="none" xmlns="http://www.w3.org/2000/svg">
<path d="M16.0494 3.097V22.5639C16.0494 24.7421 17.5376 25.9558 19.1134 25.9558C20.5724 25.9558 22.1773 24.9235 22.1773 22.5639V3.24448C22.1773 1.24765 20.7183 0 19.1134 0C17.5084 0 16.0494 1.37595 16.0494 3.097Z" fill="#F9AB00"/>
<path d="M8.02469 12.9779V22.5638C8.02469 24.742 9.5129 25.9558 11.0887 25.9558C12.5477 25.9558 14.1526 24.9234 14.1526 22.5638V13.1253C14.1526 11.1285 12.6936 9.88086 11.0887 9.88086C9.48372 9.88086 8.02469 11.2568 8.02469 12.9779Z" fill="#E37400"/>
<path d="M3.06397 25.9557C4.75616 25.9557 6.12795 24.5691 6.12795 22.8587C6.12795 21.1483 4.75616 19.7617 3.06397 19.7617C1.37179 19.7617 0 21.1483 0 22.8587C0 24.5691 1.37179 25.9557 3.06397 25.9557Z" fill="#E37400"/>
</svg>
